<?xml version="1.0" encoding="UTF-8"?><svg id="Artwork" xmlns="http://www.w3.org/2000/svg" xmlns:xlink="http://www.w3.org/1999/xlink" viewBox="0 0 300 300"><defs><style>.cls-1{fill:url(#linear-gradient);}.cls-1,.cls-2,.cls-3,.cls-4,.cls-5,.cls-6,.cls-7,.cls-8,.cls-9,.cls-10,.cls-11{stroke:#1e1e1e;}.cls-1,.cls-2,.cls-7,.cls-8,.cls-9{stroke-miterlimit:10;}.cls-1,.cls-11{stroke-width:.67px;}.cls-2,.cls-3,.cls-4,.cls-5,.cls-6,.cls-7,.cls-8,.cls-9,.cls-10{stroke-width:.55px;}.cls-2,.cls-5{fill:#fff;}.cls-3{fill:#fbfaf8;}.cls-3,.cls-4,.cls-5,.cls-6,.cls-10,.cls-11{stroke-linejoin:round;}.cls-4,.cls-6{fill:#f5f3ee;}.cls-5,.cls-6,.cls-10,.cls-11{stroke-linecap:round;}.cls-7{fill:url(#linear-gradient-3);}.cls-8{fill:url(#linear-gradient-4);}.cls-9{fill:url(#linear-gradient-2);}.cls-10{fill:#f9f8f5;}.cls-11{fill:none;stroke-dasharray:0 0 6.91 6.91;}</style><linearGradient id="linear-gradient" x1="102.96" y1="175.8" x2="148.08" y2="175.8" gradientUnits="userSpaceOnUse"><stop offset="0" stop-color="#f5f3ee"/><stop offset="1" stop-color="#d2d2d2"/></linearGradient><linearGradient id="linear-gradient-2" x1="52.48" y1="187.29" x2="175.58" y2="187.29" gradientUnits="userSpaceOnUse"><stop offset="0" stop-color="#f5f3ee"/><stop offset="1" stop-color="#d2d2d2"/></linearGradient><linearGradient id="linear-gradient-3" x1="129.05" y1="139.76" x2="159.67" y2="169.69" gradientUnits="userSpaceOnUse"><stop offset="0" stop-color="#f5f3ee"/><stop offset=".74" stop-color="#d2d2d2"/></linearGradient><linearGradient id="linear-gradient-4" x1="190.86" y1="74.97" x2="205.56" y2="108.57" gradientUnits="userSpaceOnUse"><stop offset="0" stop-color="#f5f3ee"/><stop offset="1" stop-color="#d2d2d2"/></linearGradient></defs><path class="cls-1" d="M132.43,197.87c5.13,1.12,9.69,.36,12.6-2.55,6.25-6.25,2.58-20.05-8.2-30.83-10.78-10.78-24.58-14.45-30.83-8.2-2.92,2.92-3.67,7.48-2.55,12.6,5.87,1.28,12.47,5,18.22,10.75,5.75,5.75,9.47,12.36,10.75,18.22Z"/><g><path class="cls-2" d="M154.55,146.77c-27.65-27.65-63.06-37.06-79.09-21.03-16.03,16.03-6.62,51.44,21.03,79.09,27.65,27.65,63.06,37.06,79.09,21.03,16.03-16.03,6.62-51.44-21.03-79.09Zm-40.34,40.34c-10.78-10.78-14.45-24.58-8.2-30.83,6.25-6.25,20.05-2.58,30.83,8.2s14.45,24.58,8.2,30.83c-6.25,6.25-20.05,2.58-30.83-8.2Z"/><path class="cls-9" d="M160.42,241.02c-16.03,16.03-51.44,6.62-79.09-21.03-27.65-27.65-37.06-63.06-21.03-79.09l15.16-15.16c-16.03,16.03-6.62,51.44,21.03,79.09,27.65,27.65,63.06,37.06,79.09,21.03l-15.16,15.16Z"/></g><polyline class="cls-11" points="168.74 163.4 114.41 186.91 147.23 154.1"/><polyline class="cls-11" points="137.92 132.58 114.41 186.91 147.23 154.1"/><path class="cls-2" d="M167.53,133.79c-9.24-9.24-21.08-12.39-26.44-7.03-5.36,5.36-2.21,17.19,7.03,26.44,9.24,9.24,21.08,12.39,26.44,7.03,5.36-5.36,2.21-17.19-7.03-26.44Z"/><path class="cls-7" d="M159.4,175.38c-5.36,5.36-17.19,2.21-26.44-7.03s-12.39-21.08-7.03-26.44l15.16-15.16c-5.36,5.36-2.21,17.19,7.03,26.44,9.24,9.24,21.08,12.39,26.44,7.03l-15.16,15.16Z"/><g><polygon class="cls-5" points="228.41 136.48 219.73 163.56 238.84 184.62 247.52 157.54 228.41 136.48"/><g><polygon class="cls-6" points="228.41 136.48 200.62 142.51 191.94 169.58 219.73 163.56 228.41 136.48"/><polygon class="cls-10" points="238.84 184.62 219.73 163.56 191.94 169.58 211.05 190.64 238.84 184.62"/></g></g><g><polygon class="cls-5" points="144.62 51.16 143.83 73.2 162.51 84.9 163.3 62.86 144.62 51.16"/><polygon class="cls-3" points="162.51 84.9 98.46 97.26 143.83 73.2 162.51 84.9"/><polygon class="cls-4" points="144.62 51.16 98.46 97.26 143.83 73.2 144.62 51.16"/></g><g><ellipse class="cls-2" cx="212.4" cy="89.31" rx="3.4" ry="29.19" transform="translate(-17.65 102.24) rotate(-26.02)"/><path class="cls-8" d="M209.35,90.8c-7.07-14.49-11.44-26.9-9.75-27.72-14.49,7.07-20.5,24.55-13.42,39.04,7.07,14.49,24.55,20.5,39.03,13.43-1.69,.81-8.79-10.26-15.85-24.74Z"/></g></svg>