<?xml version="1.0" encoding="UTF-8"?><svg id="Artwork" xmlns="http://www.w3.org/2000/svg" xmlns:xlink="http://www.w3.org/1999/xlink" viewBox="0 0 300 300"><defs><style>.cls-1,.cls-2,.cls-3,.cls-4,.cls-5,.cls-6,.cls-7,.cls-8,.cls-9,.cls-10,.cls-11{stroke:#1e1e1e;}.cls-1,.cls-2,.cls-3,.cls-4,.cls-7,.cls-8{stroke-width:.55px;}.cls-1,.cls-3,.cls-10{fill:#fff;}.cls-1,.cls-5,.cls-6,.cls-9,.cls-10{stroke-miterlimit:10;}.cls-2,.cls-3,.cls-4,.cls-7,.cls-8,.cls-11{stroke-linecap:round;stroke-linejoin:round;}.cls-2,.cls-12{fill:#d2d2d2;}.cls-4{fill:#f5f3ee;}.cls-5{fill:url(#linear-gradient-2);}.cls-5,.cls-6,.cls-9{stroke-width:.52px;}.cls-6{fill:url(#linear-gradient-3);}.cls-7,.cls-11{fill:none;}.cls-8{fill:#f9f8f5;}.cls-9{fill:url(#linear-gradient);}.cls-10{stroke-width:.5px;}.cls-11{stroke-width:.67px;}</style><linearGradient id="linear-gradient" x1="181.98" y1="115.36" x2="218.54" y2="115.36" gradientUnits="userSpaceOnUse"><stop offset="0" stop-color="#fff"/><stop offset="1" stop-color="#d2d2d2"/></linearGradient><linearGradient id="linear-gradient-2" x1="177.55" y1="211.82" x2="217.58" y2="211.82" xlink:href="#linear-gradient"/><linearGradient id="linear-gradient-3" x1="117.63" y1="146.08" x2="143.67" y2="146.08" xlink:href="#linear-gradient"/></defs><g><polygon class="cls-7" points="215.64 132.14 179 139.44 154.37 111.36 181.98 130.65 215.64 132.14"/><polygon class="cls-3" points="179 139.44 154.37 111.36 181.98 130.65 179 139.44"/><polygon class="cls-2" points="181.98 130.65 215.64 132.14 179 139.44 181.98 130.65"/><polygon class="cls-2" points="227.64 96.77 215.64 132.14 218.54 98.59 227.64 96.77"/><polygon class="cls-4" points="218.54 98.59 203.01 68.69 227.64 96.77 218.54 98.59"/><polygon class="cls-3" points="166.37 75.98 154.37 111.36 172.48 82.96 166.37 75.98"/><polygon class="cls-3" points="172.48 82.96 203.01 68.69 166.37 75.98 172.48 82.96"/><polygon class="cls-9" points="218.54 98.58 215.64 132.14 181.98 130.65 218.54 98.58"/><polygon class="cls-3" points="172.49 82.95 154.37 111.36 181.99 130.66 172.49 82.95"/><polygon class="cls-4" points="172.49 82.95 203.01 68.69 218.54 98.58 172.49 82.95"/><polygon class="cls-4" points="218.54 98.58 181.98 130.65 172.49 82.95 218.54 98.58"/><g><path class="cls-10" d="M206.52,69.89c-.06,.17-.82,.03-.9,.18s.46,.71,.36,.85-.79-.23-.91-.11,.22,.82,.08,.92-.68-.46-.84-.38-.04,.84-.21,.9-.5-.65-.68-.62-.3,.79-.47,.79-.28-.77-.45-.8-.53,.66-.69,.6-.03-.82-.18-.9-.71,.46-.85,.36,.23-.79,.11-.91-.82,.22-.92,.08,.46-.68,.38-.84-.84-.04-.9-.21,.65-.5,.62-.68-.79-.3-.79-.47,.77-.28,.8-.45-.66-.53-.6-.69,.82-.03,.9-.18-.46-.71-.36-.85,.79,.23,.91,.11-.22-.82-.08-.92,.68,.46,.84,.38,.04-.84,.21-.9,.5,.65,.68,.62,.3-.79,.47-.79,.28,.77,.45,.8,.53-.66,.69-.6,.03,.82,.18,.9,.71-.46,.85-.36-.23,.79-.11,.91,.82-.22,.92-.08-.46,.68-.38,.84,.84,.04,.9,.21-.65,.5-.62,.68,.79,.3,.79,.47-.77,.28-.8,.45,.66,.53,.6,.69Z"/><circle class="cls-12" cx="203.01" cy="68.69" r="1.83"/></g><g><path class="cls-10" d="M185.49,131.85c-.06,.17-.82,.03-.9,.18s.46,.71,.36,.85-.79-.23-.91-.11,.22,.82,.08,.92-.68-.46-.84-.38-.04,.84-.21,.9-.5-.65-.68-.62-.3,.79-.47,.79-.28-.77-.45-.8-.53,.66-.69,.6-.03-.82-.18-.9-.71,.46-.85,.36,.23-.79,.11-.91-.82,.22-.92,.08,.46-.68,.38-.84-.84-.04-.9-.21,.65-.5,.62-.68-.79-.3-.79-.47,.77-.28,.8-.45-.66-.53-.6-.69,.82-.03,.9-.18-.46-.71-.36-.85,.79,.23,.91,.11-.22-.82-.08-.92,.68,.46,.84,.38,.04-.84,.21-.9,.5,.65,.68,.62,.3-.79,.47-.79,.28,.77,.45,.8,.53-.66,.69-.6,.03,.82,.18,.9,.71-.46,.85-.36-.23,.79-.11,.91,.82-.22,.92-.08-.46,.68-.38,.84,.84,.04,.9,.21-.65,.5-.62,.68,.79,.3,.79,.47-.77,.28-.8,.45,.66,.53,.6,.69Z"/><circle class="cls-12" cx="181.98" cy="130.65" r="1.83"/></g></g><g><polygon class="cls-11" points="210.82 228.32 173.58 231.34 152.36 200.6 177.55 222.96 210.82 228.32"/><polygon class="cls-3" points="173.58 231.34 152.36 200.6 177.55 222.96 173.58 231.34"/><polygon class="cls-2" points="177.55 222.96 210.82 228.32 173.58 231.34 177.55 222.96"/><polygon class="cls-2" points="226.82 194.57 210.82 228.32 217.58 195.33 226.82 194.57"/><polygon class="cls-4" points="217.58 195.33 205.6 163.84 226.82 194.57 217.58 195.33"/><polygon class="cls-3" points="168.37 166.85 152.36 200.6 173.63 174.48 168.37 166.85"/><polygon class="cls-3" points="173.63 174.48 205.6 163.84 168.37 166.85 173.63 174.48"/><polygon class="cls-5" points="217.58 195.32 210.82 228.32 177.55 222.96 217.58 195.32"/><polygon class="cls-3" points="173.64 174.48 152.36 200.6 177.56 222.96 173.64 174.48"/><polygon class="cls-4" points="173.64 174.48 205.6 163.84 217.58 195.32 173.64 174.48"/><polygon class="cls-4" points="217.58 195.32 177.55 222.96 173.64 174.48 217.58 195.32"/><g><path class="cls-1" d="M208.95,165.43c-.08,.16-.82-.06-.92,.08s.38,.76,.26,.88-.76-.32-.9-.21,.13,.84-.03,.92-.62-.54-.79-.48-.14,.83-.31,.87-.43-.7-.6-.7-.39,.75-.56,.73-.19-.8-.36-.85-.6,.6-.76,.52,.06-.82-.08-.92-.76,.38-.88,.26,.32-.76,.21-.9-.84,.13-.92-.03,.54-.62,.48-.79-.83-.14-.87-.31,.7-.43,.7-.6-.75-.39-.73-.56,.8-.19,.85-.36-.6-.6-.52-.76,.82,.06,.92-.08-.38-.76-.26-.88,.76,.32,.9,.21-.13-.84,.03-.92,.62,.54,.79,.48,.14-.83,.31-.87,.43,.7,.6,.7,.39-.75,.56-.73,.19,.8,.36,.85,.6-.6,.76-.52-.06,.82,.08,.92,.76-.38,.88-.26-.32,.76-.21,.9,.84-.13,.92,.03-.54,.62-.48,.79,.83,.14,.87,.31-.7,.43-.7,.6,.75,.39,.73,.56-.8,.19-.85,.36,.6,.6,.52,.76Z"/><circle class="cls-12" cx="205.6" cy="163.84" r="1.83"/></g><g><path class="cls-1" d="M176.99,176.08c-.08,.16-.82-.06-.92,.08s.38,.76,.26,.88-.76-.32-.9-.21,.13,.84-.03,.92-.62-.54-.79-.48-.14,.83-.31,.87-.43-.7-.6-.7-.39,.75-.56,.73-.19-.8-.36-.85-.6,.6-.76,.52,.06-.82-.08-.92-.76,.38-.88,.26,.32-.76,.21-.9-.84,.13-.92-.03,.54-.62,.48-.79-.83-.14-.87-.31,.7-.43,.7-.6-.75-.39-.73-.56,.8-.19,.85-.36-.6-.6-.52-.76,.82,.06,.92-.08-.38-.76-.26-.88,.76,.32,.9,.21-.13-.84,.03-.92,.62,.54,.79,.48,.14-.83,.31-.87,.43,.7,.6,.7,.39-.75,.56-.73,.19,.8,.36,.85,.6-.6,.76-.52-.06,.82,.08,.92,.76-.38,.88-.26-.32,.76-.21,.9,.84-.13,.92,.03-.54,.62-.48,.79,.83,.14,.87,.31-.7,.43-.7,.6,.75,.39,.73,.56-.8,.19-.85,.36,.6,.6,.52,.76Z"/><circle class="cls-12" cx="173.63" cy="174.48" r="1.83"/></g><g><path class="cls-1" d="M171.72,168.44c-.08,.16-.82-.06-.92,.08s.38,.76,.26,.88-.76-.32-.9-.21,.13,.84-.03,.92-.62-.54-.79-.48-.14,.83-.31,.87-.43-.7-.6-.7-.39,.75-.56,.73-.19-.8-.36-.85-.6,.6-.76,.52,.06-.82-.08-.92-.76,.38-.88,.26,.32-.76,.21-.9-.84,.13-.92-.03,.54-.62,.48-.79-.83-.14-.87-.31,.7-.43,.7-.6-.75-.39-.73-.56,.8-.19,.85-.36-.6-.6-.52-.76,.82,.06,.92-.08-.38-.76-.26-.88,.76,.32,.9,.21-.13-.84,.03-.92,.62,.54,.79,.48,.14-.83,.31-.87,.43,.7,.6,.7,.39-.75,.56-.73,.19,.8,.36,.85,.6-.6,.76-.52-.06,.82,.08,.92,.76-.38,.88-.26-.32,.76-.21,.9,.84-.13,.92,.03-.54,.62-.48,.79,.83,.14,.87,.31-.7,.43-.7,.6,.75,.39,.73,.56-.8,.19-.85,.36,.6,.6,.52,.76Z"/><circle class="cls-12" cx="168.37" cy="166.85" r="1.83"/></g><g><path class="cls-1" d="M155.72,202.19c-.08,.16-.82-.06-.92,.08s.38,.76,.26,.88-.76-.32-.9-.21,.13,.84-.03,.92-.62-.54-.79-.48-.14,.83-.31,.87-.43-.7-.6-.7-.39,.75-.56,.73-.19-.8-.36-.85-.6,.6-.76,.52,.06-.82-.08-.92-.76,.38-.88,.26,.32-.76,.21-.9-.84,.13-.92-.03,.54-.62,.48-.79-.83-.14-.87-.31,.7-.43,.7-.6-.75-.39-.73-.56,.8-.19,.85-.36-.6-.6-.52-.76,.82,.06,.92-.08-.38-.76-.26-.88,.76,.32,.9,.21-.13-.84,.03-.92,.62,.54,.79,.48,.14-.83,.31-.87,.43,.7,.6,.7,.39-.75,.56-.73,.19,.8,.36,.85,.6-.6,.76-.52-.06,.82,.08,.92,.76-.38,.88-.26-.32,.76-.21,.9,.84-.13,.92,.03-.54,.62-.48,.79,.83,.14,.87,.31-.7,.43-.7,.6,.75,.39,.73,.56-.8,.19-.85,.36,.6,.6,.52,.76Z"/><circle class="cls-12" cx="152.36" cy="200.6" r="1.83"/></g><g><path class="cls-1" d="M230.18,196.17c-.08,.16-.82-.06-.92,.08s.38,.76,.26,.88-.76-.32-.9-.21,.13,.84-.03,.92-.62-.54-.79-.48-.14,.83-.31,.87-.43-.7-.6-.7-.39,.75-.56,.73-.19-.8-.36-.85-.6,.6-.76,.52,.06-.82-.08-.92-.76,.38-.88,.26,.32-.76,.21-.9-.84,.13-.92-.03,.54-.62,.48-.79-.83-.14-.87-.31,.7-.43,.7-.6-.75-.39-.73-.56,.8-.19,.85-.36-.6-.6-.52-.76,.82,.06,.92-.08-.38-.76-.26-.88,.76,.32,.9,.21-.13-.84,.03-.92,.62,.54,.79,.48,.14-.83,.31-.87,.43,.7,.6,.7,.39-.75,.56-.73,.19,.8,.36,.85,.6-.6,.76-.52-.06,.82,.08,.92,.76-.38,.88-.26-.32,.76-.21,.9,.84-.13,.92,.03-.54,.62-.48,.79,.83,.14,.87,.31-.7,.43-.7,.6,.75,.39,.73,.56-.8,.19-.85,.36,.6,.6,.52,.76Z"/><circle class="cls-12" cx="226.82" cy="194.57" r="1.83"/></g><g><path class="cls-1" d="M214.17,229.92c-.08,.16-.82-.06-.92,.08s.38,.76,.26,.88-.76-.32-.9-.21,.13,.84-.03,.92-.62-.54-.79-.48-.14,.83-.31,.87-.43-.7-.6-.7-.39,.75-.56,.73-.19-.8-.36-.85-.6,.6-.76,.52,.06-.82-.08-.92-.76,.38-.88,.26,.32-.76,.21-.9-.84,.13-.92-.03,.54-.62,.48-.79-.83-.14-.87-.31,.7-.43,.7-.6-.75-.39-.73-.56,.8-.19,.85-.36-.6-.6-.52-.76,.82,.06,.92-.08-.38-.76-.26-.88,.76,.32,.9,.21-.13-.84,.03-.92,.62,.54,.79,.48,.14-.83,.31-.87,.43,.7,.6,.7,.39-.75,.56-.73,.19,.8,.36,.85,.6-.6,.76-.52-.06,.82,.08,.92,.76-.38,.88-.26-.32,.76-.21,.9,.84-.13,.92,.03-.54,.62-.48,.79,.83,.14,.87,.31-.7,.43-.7,.6,.75,.39,.73,.56-.8,.19-.85,.36,.6,.6,.52,.76Z"/><circle class="cls-12" cx="210.82" cy="228.32" r="1.83"/></g><g><path class="cls-1" d="M220.94,196.92c-.08,.16-.82-.06-.92,.08s.38,.76,.26,.88-.76-.32-.9-.21,.13,.84-.03,.92-.62-.54-.79-.48-.14,.83-.31,.87-.43-.7-.6-.7-.39,.75-.56,.73-.19-.8-.36-.85-.6,.6-.76,.52,.06-.82-.08-.92-.76,.38-.88,.26,.32-.76,.21-.9-.84,.13-.92-.03,.54-.62,.48-.79-.83-.14-.87-.31,.7-.43,.7-.6-.75-.39-.73-.56,.8-.19,.85-.36-.6-.6-.52-.76,.82,.06,.92-.08-.38-.76-.26-.88,.76,.32,.9,.21-.13-.84,.03-.92,.62,.54,.79,.48,.14-.83,.31-.87,.43,.7,.6,.7,.39-.75,.56-.73,.19,.8,.36,.85,.6-.6,.76-.52-.06,.82,.08,.92,.76-.38,.88-.26-.32,.76-.21,.9,.84-.13,.92,.03-.54,.62-.48,.79,.83,.14,.87,.31-.7,.43-.7,.6,.75,.39,.73,.56-.8,.19-.85,.36,.6,.6,.52,.76Z"/><circle class="cls-12" cx="217.58" cy="195.33" r="1.83"/></g><g><path class="cls-1" d="M180.91,224.55c-.08,.16-.82-.06-.92,.08s.38,.76,.26,.88-.76-.32-.9-.21,.13,.84-.03,.92-.62-.54-.79-.48-.14,.83-.31,.87-.43-.7-.6-.7-.39,.75-.56,.73-.19-.8-.36-.85-.6,.6-.76,.52,.06-.82-.08-.92-.76,.38-.88,.26,.32-.76,.21-.9-.84,.13-.92-.03,.54-.62,.48-.79-.83-.14-.87-.31,.7-.43,.7-.6-.75-.39-.73-.56,.8-.19,.85-.36-.6-.6-.52-.76,.82,.06,.92-.08-.38-.76-.26-.88,.76,.32,.9,.21-.13-.84,.03-.92,.62,.54,.79,.48,.14-.83,.31-.87,.43,.7,.6,.7,.39-.75,.56-.73,.19,.8,.36,.85,.6-.6,.76-.52-.06,.82,.08,.92,.76-.38,.88-.26-.32,.76-.21,.9,.84-.13,.92,.03-.54,.62-.48,.79,.83,.14,.87,.31-.7,.43-.7,.6,.75,.39,.73,.56-.8,.19-.85,.36,.6,.6,.52,.76Z"/><circle class="cls-12" cx="177.55" cy="222.96" r="1.83"/></g><g><path class="cls-1" d="M176.94,232.93c-.08,.16-.82-.06-.92,.08s.38,.76,.26,.88-.76-.32-.9-.21,.13,.84-.03,.92-.62-.54-.79-.48-.14,.83-.31,.87-.43-.7-.6-.7-.39,.75-.56,.73-.19-.8-.36-.85-.6,.6-.76,.52,.06-.82-.08-.92-.76,.38-.88,.26,.32-.76,.21-.9-.84,.13-.92-.03,.54-.62,.48-.79-.83-.14-.87-.31,.7-.43,.7-.6-.75-.39-.73-.56,.8-.19,.85-.36-.6-.6-.52-.76,.82,.06,.92-.08-.38-.76-.26-.88,.76,.32,.9,.21-.13-.84,.03-.92,.62,.54,.79,.48,.14-.83,.31-.87,.43,.7,.6,.7,.39-.75,.56-.73,.19,.8,.36,.85,.6-.6,.76-.52-.06,.82,.08,.92,.76-.38,.88-.26-.32,.76-.21,.9,.84-.13,.92,.03-.54,.62-.48,.79,.83,.14,.87,.31-.7,.43-.7,.6,.75,.39,.73,.56-.8,.19-.85,.36,.6,.6,.52,.76Z"/><circle class="cls-12" cx="173.58" cy="231.34" r="1.83"/></g></g><g><polygon class="cls-7" points="143.67 148.84 121.29 178.75 84.2 174.32 117.63 170.22 143.67 148.84"/><polygon class="cls-8" points="121.29 178.75 84.2 174.32 117.63 170.22 121.29 178.75"/><polygon class="cls-2" points="117.63 170.22 143.67 148.84 121.29 178.75 117.63 170.22"/><polygon class="cls-2" points="128.96 114.51 143.67 148.84 123.41 121.93 128.96 114.51"/><polygon class="cls-8" points="123.41 121.93 91.88 110.07 128.96 114.51 123.41 121.93"/><polygon class="cls-3" points="69.49 139.98 84.2 174.32 78.7 141.08 69.49 139.98"/><polygon class="cls-3" points="78.7 141.08 91.88 110.07 69.49 139.98 78.7 141.08"/><polygon class="cls-6" points="123.4 121.93 143.67 148.84 117.63 170.22 123.4 121.93"/><polygon class="cls-8" points="78.7 141.07 84.2 174.32 117.64 170.22 78.7 141.07"/><polygon class="cls-8" points="78.7 141.07 91.88 110.07 123.4 121.93 78.7 141.07"/><polygon class="cls-8" points="123.4 121.93 117.63 170.22 78.7 141.07 123.4 121.93"/><g><path class="cls-10" d="M95.29,108.61c.07,.16-.59,.57-.55,.74s.82,.22,.83,.39-.74,.36-.75,.53,.71,.46,.67,.63-.81,.11-.88,.27,.54,.65,.45,.8-.81-.14-.92,0,.31,.79,.18,.9-.72-.39-.87-.29,.05,.84-.11,.91-.57-.59-.74-.55-.22,.82-.39,.83-.36-.74-.53-.75-.46,.71-.63,.67-.11-.81-.27-.88-.65,.54-.8,.45,.14-.81,0-.92-.79,.31-.9,.18,.39-.72,.29-.87-.84,.05-.91-.11,.59-.57,.55-.74-.82-.22-.83-.39,.74-.36,.75-.53-.71-.46-.67-.63,.81-.11,.88-.27-.54-.65-.45-.8,.81,.14,.92,0-.31-.79-.18-.9,.72,.39,.87,.29-.05-.84,.11-.91,.57,.59,.74,.55,.22-.82,.39-.83,.36,.74,.53,.75,.46-.71,.63-.67,.11,.81,.27,.88,.65-.54,.8-.45-.14,.81,0,.92,.79-.31,.9-.18-.39,.72-.29,.87,.84-.05,.91,.11Z"/><circle class="cls-12" cx="91.88" cy="110.07" r="1.83"/></g><g><path class="cls-10" d="M147.09,147.38c.07,.16-.59,.57-.55,.74s.82,.22,.83,.39-.74,.36-.75,.53,.71,.46,.67,.63-.81,.11-.88,.27,.54,.65,.45,.8-.81-.14-.92,0,.31,.79,.18,.9-.72-.39-.87-.29,.05,.84-.11,.91-.57-.59-.74-.55-.22,.82-.39,.83-.36-.74-.53-.75-.46,.71-.63,.67-.11-.81-.27-.88-.65,.54-.8,.45,.14-.81,0-.92-.79,.31-.9,.18,.39-.72,.29-.87-.84,.05-.91-.11,.59-.57,.55-.74-.82-.22-.83-.39,.74-.36,.75-.53-.71-.46-.67-.63,.81-.11,.88-.27-.54-.65-.45-.8,.81,.14,.92,0-.31-.79-.18-.9,.72,.39,.87,.29-.05-.84,.11-.91,.57,.59,.74,.55,.22-.82,.39-.83,.36,.74,.53,.75,.46-.71,.63-.67,.11,.81,.27,.88,.65-.54,.8-.45-.14,.81,0,.92,.79-.31,.9-.18-.39,.72-.29,.87,.84-.05,.91,.11Z"/><circle class="cls-12" cx="143.67" cy="148.84" r="1.83"/></g><g><path class="cls-10" d="M121.05,168.76c.07,.16-.59,.57-.55,.74s.82,.22,.83,.39-.74,.36-.75,.53,.71,.46,.67,.63-.81,.11-.88,.27,.54,.65,.45,.8-.81-.14-.92,0,.31,.79,.18,.9-.72-.39-.87-.29,.05,.84-.11,.91-.57-.59-.74-.55-.22,.82-.39,.83-.36-.74-.53-.75-.46,.71-.63,.67-.11-.81-.27-.88-.65,.54-.8,.45,.14-.81,0-.92-.79,.31-.9,.18,.39-.72,.29-.87-.84,.05-.91-.11,.59-.57,.55-.74-.82-.22-.83-.39,.74-.36,.75-.53-.71-.46-.67-.63,.81-.11,.88-.27-.54-.65-.45-.8,.81,.14,.92,0-.31-.79-.18-.9,.72,.39,.87,.29-.05-.84,.11-.91,.57,.59,.74,.55,.22-.82,.39-.83,.36,.74,.53,.75,.46-.71,.63-.67,.11,.81,.27,.88,.65-.54,.8-.45-.14,.81,0,.92,.79-.31,.9-.18-.39,.72-.29,.87,.84-.05,.91,.11Z"/><circle class="cls-12" cx="117.63" cy="170.22" r="1.83"/></g><g><path class="cls-10" d="M87.61,172.85c.07,.16-.59,.57-.55,.74s.82,.22,.83,.39-.74,.36-.75,.53,.71,.46,.67,.63-.81,.11-.88,.27,.54,.65,.45,.8-.81-.14-.92,0,.31,.79,.18,.9-.72-.39-.87-.29,.05,.84-.11,.91-.57-.59-.74-.55-.22,.82-.39,.83-.36-.74-.53-.75-.46,.71-.63,.67-.11-.81-.27-.88-.65,.54-.8,.45,.14-.81,0-.92-.79,.31-.9,.18,.39-.72,.29-.87-.84,.05-.91-.11,.59-.57,.55-.74-.82-.22-.83-.39,.74-.36,.75-.53-.71-.46-.67-.63,.81-.11,.88-.27-.54-.65-.45-.8,.81,.14,.92,0-.31-.79-.18-.9,.72,.39,.87,.29-.05-.84,.11-.91,.57,.59,.74,.55,.22-.82,.39-.83,.36,.74,.53,.75,.46-.71,.63-.67,.11,.81,.27,.88,.65-.54,.8-.45-.14,.81,0,.92,.79-.31,.9-.18-.39,.72-.29,.87,.84-.05,.91,.11Z"/><circle class="cls-12" cx="84.2" cy="174.32" r="1.83"/></g></g></svg>