<?xml version="1.0" encoding="UTF-8"?><svg id="Artwork" xmlns="http://www.w3.org/2000/svg" xmlns:xlink="http://www.w3.org/1999/xlink" viewBox="0 0 300 300"><defs><style>.cls-1{fill:#fff;}.cls-1,.cls-2,.cls-3,.cls-4{stroke-linecap:round;stroke-linejoin:round;}.cls-1,.cls-2,.cls-3,.cls-4,.cls-5{stroke:#1e1e1e;stroke-width:.55px;}.cls-2{fill:#e3e2e0;}.cls-3{fill:#f5f3ee;}.cls-4{fill:url(#linear-gradient);}.cls-5{fill:#fdfcfb;stroke-miterlimit:2.5;}</style><linearGradient id="linear-gradient" x1="44.86" y1="208.45" x2="171.05" y2="208.45" gradientUnits="userSpaceOnUse"><stop offset="0" stop-color="#f5f3ee"/><stop offset="1" stop-color="#d2d2d2"/></linearGradient></defs><g><g><polygon class="cls-4" points="44.86 183.6 171.05 246.26 171.05 233.3 44.86 170.64 44.86 183.6"/><polygon class="cls-5" points="255.14 206.1 171.05 246.26 171.05 233.3 255.14 193.15 255.14 206.1"/></g><polygon class="cls-1" points="171.05 233.3 44.86 170.64 128.95 130.48 255.14 193.15 171.05 233.3"/></g><g><path class="cls-3" d="M131.13,160.24c-6.08-16.66-11.95-48.37-11.53-78.98-.42,30.61-7.09,56.33-13.54,67.01l25.07,11.97Z"/><path class="cls-1" d="M142.39,154.69c-6.08-16.66-14.3-49.93-13.87-80.54l-8.91,7.12c-.42,30.61,5.45,62.32,11.53,78.98l11.26-5.56Z"/></g><g><path class="cls-3" d="M168.74,178.22c-6.08-16.66-11.79-44.52-11.37-75.13-.42,30.61-7.25,52.48-13.71,63.16l25.07,11.97Z"/><path class="cls-1" d="M180,172.66c-6.08-16.66-14.14-46.09-13.71-76.69l-8.91,7.12c-.42,30.61,5.29,58.47,11.37,75.13l11.26-5.56Z"/></g><g><path class="cls-3" d="M218.88,202.19c-6.08-16.66-11.08-90.73-10.65-121.34-.42,30.61-7.96,98.69-14.42,109.37l25.07,11.97Z"/><path class="cls-1" d="M217.14,73.73c-.42,30.61,6.92,106.24,13,122.9l-11.26,5.56c-6.08-16.66-11.08-90.73-10.65-121.34l8.91-7.12Z"/></g><g><path class="cls-2" d="M91.9,178.98c-6.08-16.66-11.79-60.1-11.37-90.71-.42,30.61-7.25,68.06-13.71,78.73l25.07,11.97Z"/><path class="cls-1" d="M103.15,173.43c-6.08-16.66-14.14-61.66-13.71-92.27l-8.91,7.12c-.42,30.61,5.29,74.04,11.37,90.71l11.26-5.56Z"/></g><g><path class="cls-2" d="M142.04,202.96c-6.08-16.66-11.08-111.49-10.65-142.1-.42,30.61-7.96,119.45-14.42,130.12l25.07,11.97Z"/><path class="cls-1" d="M140.3,53.74c-.42,30.61,6.92,127,13,143.66l-11.26,5.56c-6.08-16.66-11.08-111.49-10.65-142.1l8.91-7.12Z"/></g><g><path class="cls-2" d="M179.65,220.93c-6.08-16.66-11.95-48.37-11.53-78.98-.42,30.61-7.09,56.33-13.54,67.01l25.07,11.97Z"/><path class="cls-1" d="M190.9,215.38c-6.08-16.66-14.3-49.93-13.87-80.54l-8.91,7.12c-.42,30.61,5.45,62.32,11.53,78.98l11.26-5.56Z"/></g></svg>