<?xml version="1.0" encoding="UTF-8"?><svg id="Artwork" xmlns="http://www.w3.org/2000/svg" xmlns:xlink="http://www.w3.org/1999/xlink" viewBox="0 0 300 300"><defs><style>.cls-1{fill:#d2d2d2;}.cls-1,.cls-2,.cls-3,.cls-4,.cls-5,.cls-6,.cls-7,.cls-8,.cls-9,.cls-10{stroke-width:.55px;}.cls-1,.cls-2,.cls-3,.cls-4,.cls-5,.cls-6,.cls-7,.cls-8,.cls-9,.cls-10,.cls-11{stroke:#1e1e1e;stroke-linejoin:round;}.cls-1,.cls-11{stroke-linecap:round;}.cls-2{fill:#fff;}.cls-3{fill:url(#linear-gradient);}.cls-4{fill:url(#linear-gradient-3);}.cls-5{fill:url(#linear-gradient-2);}.cls-6{fill:url(#linear-gradient-5);}.cls-7{fill:url(#linear-gradient-6);}.cls-8{fill:url(#linear-gradient-7);}.cls-9{fill:url(#linear-gradient-4);}.cls-10{fill:url(#linear-gradient-8);}.cls-11{fill:none;stroke-width:1.09px;}</style><linearGradient id="linear-gradient" x1="30.68" y1="149.59" x2="60.58" y2="149.59" gradientUnits="userSpaceOnUse"><stop offset="0" stop-color="#fff"/><stop offset="1" stop-color="#d2d2d2"/></linearGradient><linearGradient id="linear-gradient-2" x1="-1858.4" y1="-3263.89" x2="-1879.44" y2="-3213.47" gradientTransform="translate(-3169.05 1949.96) rotate(90.99)" gradientUnits="userSpaceOnUse"><stop offset="0" stop-color="#fff"/><stop offset=".36" stop-color="#e8e8e8"/><stop offset=".72" stop-color="#d7d7d7"/><stop offset="1" stop-color="#d2d2d2"/></linearGradient><linearGradient id="linear-gradient-3" x1="-256.51" y1="-1775.46" x2="-230.01" y2="-1749.56" gradientTransform="translate(-1003.36 1584.21) rotate(45.99)" gradientUnits="userSpaceOnUse"><stop offset=".41" stop-color="#f5f3ee"/><stop offset="1" stop-color="#d2d2d2"/></linearGradient><linearGradient id="linear-gradient-4" x1="-296.42" y1="-1815.97" x2="-243.15" y2="-1763.91" gradientTransform="translate(-1003.36 1584.21) rotate(45.99)" gradientUnits="userSpaceOnUse"><stop offset="0" stop-color="#f5f3ee"/><stop offset=".74" stop-color="#d2d2d2"/></linearGradient><linearGradient id="linear-gradient-5" x1="-1863.95" y1="-3394.83" x2="-1884.99" y2="-3344.41" gradientTransform="translate(-3169.05 1949.96) rotate(90.99)" xlink:href="#linear-gradient-3"/><linearGradient id="linear-gradient-6" x1="-166.53" y1="-1868.71" x2="-139.96" y2="-1842.74" xlink:href="#linear-gradient-3"/><linearGradient id="linear-gradient-7" x1="-206.4" y1="-1909.17" x2="-153.13" y2="-1857.11" xlink:href="#linear-gradient-4"/><linearGradient id="linear-gradient-8" x1="200.16" y1="149.3" x2="227.65" y2="149.3" xlink:href="#linear-gradient"/></defs><g><path class="cls-2" d="M59.65,177l22.04-25.78-21.11-28.97s-9.37,4.61-14.86,26.56c0,0-.57,23.62,13.93,28.19Z"/><path class="cls-3" d="M39.91,122.28s-19.86,25.47-1.32,54.47l21.06,.25c-18.23-28.99,.93-54.75,.93-54.75l-20.56-.08-.11,.1Z"/></g><g><polyline class="cls-5" points="100.26 150.67 77.4 122.09 97.96 122.2 118.87 150.99"/><g><path class="cls-2" d="M97.96,122.2h0l20.91,28.79-22.25,25.75c4.28,9.13,10.81,15,18.21,15.13,13.35,.23,24.5-18.25,24.9-41.27,.4-23.02-10.1-41.88-23.45-42.11-7.19-.12-13.74,5.19-18.32,13.71Z"/><path class="cls-4" d="M96.95,176.95c4.28,9.13,10.47,14.8,17.88,14.92l-20.68-.36c-7.15-.12-13.98-6.27-18.25-14.85l21.06,.28Z"/><path class="cls-9" d="M97.96,122.2c4.58-8.52,11.13-13.83,18.32-13.71l-20.68-.36c-7.3-.13-13.61,5.22-18.19,13.96l20.56,.1Z"/></g><polygon class="cls-1" points="75.89 176.66 100.26 150.67 118.87 150.99 96.95 176.95 75.89 176.66"/></g><polyline class="cls-6" points="206.98 122.09 227.54 122.2 248.45 150.99"/><g><path class="cls-7" d="M226.2,176.74c4.28,9.13,10.81,15,18.21,15.13l-20.68-.36c-7.15-.12-13.98-6.27-18.25-14.85l20.72,.08Z"/><path class="cls-2" d="M227.54,122.2h0l20.91,28.79-22.25,25.75c4.28,9.13,10.81,15,18.21,15.13,13.35,.23,24.5-18.25,24.9-41.27,.4-23.02-10.1-41.88-23.45-42.11-7.19-.12-13.74,5.19-18.32,13.71Z"/><path class="cls-8" d="M227.54,122.2c5.3-7.78,11.13-13.83,18.32-13.71l-20.68-.36c-7.3-.13-13.61,5.22-18.19,13.96l20.56,.1Z"/></g><g><path class="cls-2" d="M226.2,176.74l22.57-25.83-21.11-28.97s-10.09,.85-11.34,30.11c0,0-.02,17.54,9.88,24.69"/><path class="cls-10" d="M206.99,121.97s-14.3,19.92-1.52,54.69l20.72,.08c-18.23-28.99,1.46-54.8,1.46-54.8l-20.56-.08-.11,.1Z"/></g><polyline class="cls-11" points="177.71 142.64 189.87 150.88 149.86 150.88"/></svg>