<?xml version="1.0" encoding="UTF-8"?><svg id="Artwork" xmlns="http://www.w3.org/2000/svg" xmlns:xlink="http://www.w3.org/1999/xlink" viewBox="0 0 300 300"><defs><style>.cls-1{stroke-linecap:round;stroke-linejoin:round;}.cls-1,.cls-2{stroke-width:.55px;}.cls-1,.cls-2,.cls-3,.cls-4{stroke:#1e1e1e;}.cls-1,.cls-3{fill:#fff;}.cls-2{fill:url(#linear-gradient);}.cls-2,.cls-3,.cls-4{stroke-miterlimit:10;}.cls-3,.cls-4{stroke-width:.44px;}.cls-4{fill:#f5f3ee;}</style><linearGradient id="linear-gradient" x1="209.55" y1="70.28" x2="167.19" y2="194.79" gradientUnits="userSpaceOnUse"><stop offset="0" stop-color="#fff"/><stop offset="1" stop-color="#d2d2d2"/></linearGradient></defs><ellipse class="cls-1" cx="136.14" cy="148.51" rx="102.88" ry="58.23" transform="translate(-47.7 230.91) rotate(-71.63)"/><path class="cls-2" d="M168.55,50.89c30.42,10.33,40.39,62.26,22.26,116.06-17.96,53.3-56.75,88.45-87.09,79.2,53.58,17.49,99.15-15.54,117.18-69.08,18.14-53.84,1.42-108.08-52.42-126.22,.03,0,.05,.02,.07,.03Z"/><g><path class="cls-4" d="M112.31,151.5c.11,.59,.53,.71,.94,.28,1.28-1.35,1.92-2.04,3.23-3.41,1.09-1.15,1.94-1.21,2.03-.74,.08,.47-.52,1.95-1.61,3.1-1.3,1.37-1.95,2.05-3.22,3.4-.91,.97-1.65,2.18-2.11,3.39-.46,1.2-.65,2.39-.47,3.32,.18,.92,.68,1.38,1.37,1.36,.68-.01,1.55-.5,2.45-1.45,1.26-1.33,1.9-2.01,3.19-3.36,1.08-1.13,1.93-1.18,2.02-.71,.09,.47-.51,1.94-1.58,3.06-1.29,1.35-1.92,2.02-3.18,3.35-.9,.95-1.62,2.15-2.08,3.34-.45,1.19-.63,2.37-.45,3.28,.36,1.83,2,1.81,3.79-.07,1.25-1.31,1.88-1.97,3.16-3.3,1.07-1.11,1.92-1.15,2.01-.69,.09,.47-.5,1.91-1.56,3.01-1.28,1.33-1.91,1.98-3.16,3.29-.89,.93-1.61,2.11-2.06,3.28-.45,1.17-.62,2.33-.45,3.22,.36,1.79,1.98,1.77,3.76-.07,1.24-1.28,1.87-1.93,3.14-3.24,1.06-1.09,1.91-1.13,2-.68,.09,.45-.5,1.87-1.56,2.95-1.27,1.3-1.9,1.95-3.14,3.22-.89,.92-1.6,2.07-2.05,3.22s-.63,2.27-.45,3.14c.35,1.74,1.95,1.71,3.73-.1,1.24-1.26,1.86-1.89,3.14-3.17,.41-.41,.66-1.2,.55-1.76-.11-.56-.53-.68-.94-.26-1.27,1.29-1.9,1.93-3.14,3.19-1.03,1.05-1.83,1.08-1.92,.64-.09-.44,.45-1.8,1.48-2.86,1.24-1.27,1.87-1.91,3.14-3.21,.91-.93,1.67-2.11,2.15-3.29,.48-1.18,.7-2.36,.52-3.26-.17-.91-.69-1.34-1.4-1.32-.71,.03-1.6,.52-2.51,1.46-1.27,1.31-1.9,1.97-3.15,3.26-1.03,1.07-1.84,1.1-1.93,.64-.09-.45,.45-1.85,1.49-2.93,1.24-1.3,1.88-1.95,3.15-3.27,.92-.95,1.67-2.16,2.16-3.36,.49-1.21,.7-2.41,.52-3.33-.17-.93-.7-1.37-1.41-1.35-.71,.03-1.61,.53-2.53,1.49-1.28,1.34-1.92,2-3.17,3.32-1.04,1.1-1.86,1.12-1.95,.66-.09-.46,.45-1.88,1.5-2.98,1.25-1.32,1.89-1.99,3.17-3.33,.92-.96,1.68-2.2,2.17-3.42,.49-1.23,.71-2.45,.54-3.38-.17-.94-.69-1.39-1.4-1.35-.71,.03-1.61,.55-2.54,1.52-1.29,1.36-1.93,2.04-3.2,3.38-1.05,1.11-1.87,1.14-1.96,.68-.09-.46,.47-1.9,1.52-3.02,1.27-1.34,1.91-2.02,3.21-3.39,.93-.98,1.7-2.23,2.2-3.47,.5-1.24,.73-2.47,.57-3.41-.16-.94-.68-1.38-1.39-1.34-.71,.04-1.62,.57-2.56,1.56-1.31,1.38-1.96,2.07-3.24,3.43-.41,.44-.66,1.27-.55,1.86Z"/><g><path class="cls-4" d="M82.51,164.33c-.28,1.5-.21,2.97,.15,4.07,.35,1.08,.92,1.65,1.57,1.7,.66,.05,1.41-.43,2.14-1.45-.05,.98,.03,1.9,.26,2.63,.35,1.11,.94,1.68,1.65,1.69,.7,.01,1.51-.53,2.31-1.66,.73-1.03,1.33-2.4,1.68-3.85,.09-.39,.17-.78,.22-1.16,.82,.26,1.89-.28,2.96-1.64-.12,1.02-.08,1.97,.14,2.72,.33,1.13,.97,1.67,1.77,1.62s1.74-.68,2.68-1.92c.86-1.12,1.59-2.58,2.05-4.11,.5-1.66,.61-3.28,.3-4.41-.11-.38-.25-.7-.44-.94-.87-1.16-2.53-.69-4.1,1.25,.14-1.04,.13-2.01-.08-2.75-.11-.38-.25-.69-.43-.93-.44-.59-1.08-.77-1.81-.54-.72,.23-1.53,.86-2.3,1.86-.84,1.1-1.51,2.51-1.89,3.97-.1,.4-.18,.79-.23,1.17-.83-.25-1.89,.29-2.85,1.58,.08-1,.03-1.93-.19-2.66-.11-.37-.26-.68-.43-.92-.85-1.2-2.36-.82-3.64,1.01-.7,1-1.22,2.31-1.47,3.68Zm15.76-3.38c1.17-1.52,2.47-1.88,2.79-.74,.19,.67-.03,1.6-.18,2.1-.3,1-.82,2.03-1.42,2.82-1.01,1.31-2.06,1.71-2.54,1.05-.07-.1-.13-.22-.17-.37-.19-.66,0-1.58,.13-2.06,.27-.99,.77-2,1.38-2.79Zm-4.49-2.52c1.13-1.48,2.4-1.83,2.72-.7,.19,.66-.02,1.58-.16,2.07-.28,.99-.78,2-1.36,2.77-.97,1.28-1.99,1.66-2.46,1-.07-.1-.13-.22-.17-.37-.2-.66-.02-1.56,.11-2.04,.25-.97,.73-1.96,1.32-2.73Zm-5.05,6.84c.99-1.39,2.16-1.66,2.5-.54,.2,.66,.03,1.55-.08,2.02-.23,.95-.65,1.92-1.16,2.64-.85,1.2-1.77,1.51-2.22,.84-.07-.1-.13-.23-.17-.37-.2-.65-.08-1.52,.02-1.98,.2-.93,.6-1.88,1.11-2.6Zm-4.15-2.73c.94-1.35,2.07-1.59,2.41-.49,.2,.65,.06,1.52-.05,1.99-.21,.93-.6,1.87-1.08,2.57-.8,1.17-1.68,1.44-2.13,.78-.07-.1-.13-.22-.17-.37-.21-.65-.1-1.5-.01-1.95,.17-.91,.55-1.83,1.03-2.53Z"/><path class="cls-4" d="M94.24,219.27c.18,1.41,.57,2.74,1.09,3.77,.57,1.11,1.21,1.68,1.82,1.71,.61,.03,1.2-.48,1.63-1.54,.51-1.24,.66-2.92,.44-4.56,.08,.02,.17,.06,.25,.06,.76,.04,1.47-.56,1.98-1.7,.52-1.14,.76-2.65,.65-4.25-.01-.18-.04-.35-.06-.53,.91,.18,1.84-.43,2.53-1.84,.34-.71,.58-1.52,.7-2.38,.13-.86,.14-1.76,.04-2.65,.1,.01,.2,.05,.31,.04,.93-.02,1.8-.74,2.46-2.02,.66-1.28,1-2.93,.92-4.64-.07-1.57-.49-3.04-1.18-4.13-.25-.39-.52-.72-.8-.97-.71-.64-1.49-.83-2.23-.6s-1.41,.9-1.92,1.98h0c-.36,.75-.58,1.61-.7,2.51-.11,.9-.11,1.83,0,2.74-.1-.02-.2-.04-.3-.04-.91,0-1.71,.67-2.25,1.91-.54,1.23-.74,2.83-.59,4.49,.02,.19,.05,.37,.08,.56-.9-.22-1.76,.34-2.29,1.69h0c-.53,1.35-.61,3.13-.36,4.82-.08-.02-.16-.05-.25-.06-.74-.08-1.36,.47-1.73,1.56-.37,1.09-.44,2.53-.25,4.07Zm9.46-22.89c.69-1.45,2.14-1.35,3.13,.21,.51,.81,.82,1.88,.88,3,.03,.57,0,1.65-.44,2.51-.44,.87-1.03,1.01-1.34,1.02-.4,.01-.78-.16-1.14-.49-.2-.19-.4-.43-.57-.72-.47-.77-.77-1.79-.87-2.8-.09-1.01,.01-2.01,.36-2.73Zm-3.28,7.1h0c.37-.83,.92-.95,1.22-.95,.59,0,1.19,.46,1.67,1.25,.47,.77,.76,1.77,.84,2.74,.09,.97-.03,1.92-.35,2.6-.53,1.11-1.47,1.23-2.29,.42-.19-.19-.37-.42-.53-.71-.47-.79-.77-1.83-.86-2.92-.05-.55-.07-1.61,.3-2.44Zm-2.85,6.72c.52-1.3,1.75-1.1,2.63,.41,.46,.79,.75,1.8,.83,2.85,.04,.53,.05,1.53-.29,2.3-.34,.77-.83,.87-1.09,.85-.33-.02-.65-.2-.96-.54-.17-.19-.34-.43-.5-.71-.42-.75-.7-1.72-.82-2.66-.12-.94-.07-1.86,.19-2.51Z"/><path class="cls-4" d="M87.5,196.63c.44,1.79,1.02,3.13,1.62,3.86,.6,.73,1.23,.86,1.78,.2,.65-.77,1.03-2.41,1.09-4.38,.08,.11,.15,.23,.22,.33,.7,.83,1.43,.89,2.08,.17,.76-.84,1.25-2.56,1.38-4.59,.08,.11,.15,.23,.24,.32,.74,.81,1.54,.83,2.28,.05,.43-.45,.79-1.13,1.07-1.95,.28-.82,.48-1.79,.58-2.83,.08,.11,.16,.23,.25,.32,.78,.79,1.65,.77,2.46-.06-.15-.83-.23-1.25-.39-2.09-.55,.56-1.07,.21-1.33-.05-.52-.52-.94-1.51-1.18-2.8-.24-1.24-.26-2.58-.12-3.74,.15-1.15,.47-2.12,.94-2.6-.16-.85-.24-1.28-.39-2.14-.49,.5-.89,1.21-1.2,2.07s-.52,1.85-.62,2.91c-.08-.11-.17-.22-.25-.31-.8-.8-1.67-.79-2.44,.02-.44,.47-.8,1.15-1.07,1.98-.26,.82-.43,1.79-.5,2.82-.08-.11-.16-.22-.24-.31-.76-.82-1.58-.85-2.26-.09-.68,.75-1.13,2.17-1.26,3.98-.01,.2-.01,.42-.02,.62-.75-1.08-1.62-1.35-2.3-.54-.59,.69-.92,2.01-.98,3.59-.06,1.59,.14,3.44,.58,5.24Zm8.47-15.17c.51-.54,1.03-.18,1.29,.09,.52,.53,.94,1.53,1.19,2.81,.24,1.24,.28,2.56,.15,3.69s-.41,2.05-.83,2.48c-.5,.53-.99,.16-1.24-.11-.1-.1-.19-.22-.28-.36-.37-.57-.68-1.41-.89-2.43-.25-1.22-.31-2.54-.21-3.67,.11-1.12,.39-2.06,.81-2.51Zm-4.04,4.36c.46-.51,.95-.12,1.2,.15,.49,.54,.91,1.54,1.18,2.81,.26,1.22,.32,2.52,.24,3.61-.08,1.09-.32,1.98-.69,2.39-.44,.49-.9,.1-1.14-.17-.09-.11-.18-.23-.27-.37-.36-.57-.66-1.41-.89-2.42-.28-1.25-.39-2.6-.29-3.8,.05-.6,.2-1.7,.66-2.2Z"/><path class="cls-4" d="M109.11,217.55c-.48,1.58-.4,3.12,.07,4.25-.94,.46-1.85,1.32-2.63,2.45-.78,1.14-1.42,2.55-1.86,4.13-.42,1.5-.6,2.96-.6,4.26,0,1.3,.19,2.43,.53,3.29,.35,.86,.86,1.45,1.54,1.67,.68,.22,1.45,.04,2.25-.45,.8-.49,1.64-1.29,2.42-2.33,.79-1.04,1.53-2.31,2.1-3.76,.61-1.53,.95-3.06,1.01-4.43s-.16-2.6-.65-3.52c1.05-.64,2.02-1.82,2.58-3.34,.58-1.56,.57-3.09,.07-4.23,1.14-.66,2.19-1.93,2.8-3.58,.6-1.65,.59-3.28,.05-4.49,1.21-.69,2.31-2.02,2.93-3.76,.54-1.5,.6-2.98,.24-4.19s-1.13-2.12-2.24-2.48c-1.1-.36-2.28-.09-3.29,.66-1.01,.75-1.86,1.98-2.33,3.5-.55,1.77-.47,3.49,.08,4.76-1.17,.66-2.16,1.95-2.67,3.64-.52,1.68-.44,3.32,.08,4.53-1.1,.62-2.02,1.85-2.5,3.44Zm2.65,13.24c-.6,1.58-1.46,2.88-2.35,3.73-.88,.85-1.79,1.26-2.55,1.01-.76-.25-1.24-1.1-1.44-2.3-.19-1.2-.1-2.75,.38-4.37,.48-1.62,1.25-2.99,2.15-3.89,.9-.89,1.92-1.3,2.81-1.02,.89,.29,1.45,1.21,1.63,2.46,.18,1.24-.03,2.8-.63,4.37Zm3.54-29.17c.54-1.71,2.22-2.75,3.66-2.27,1.44,.47,2.16,2.3,1.56,3.99-.59,1.69-2.27,2.74-3.66,2.28-1.39-.46-2.11-2.29-1.56-4Zm-2.65,8.38c.51-1.63,2.1-2.61,3.47-2.16,1.37,.45,2.05,2.18,1.48,3.79-.57,1.61-2.16,2.61-3.47,2.18-1.32-.43-1.99-2.18-1.48-3.8Zm.77,5.9c1.29,.42,1.92,2.05,1.38,3.56-.54,1.51-2.04,2.47-3.27,2.07-1.23-.4-1.86-2.05-1.38-3.59,.48-1.54,1.97-2.47,3.27-2.05Z"/></g><g><path class="cls-4" d="M149.7,63.78c-.63-.08-1.44,.32-2.22,1.09-.77,.75-1.41,1.73-1.82,2.76-.41,1.02-.57,2.09-.41,2.99-.51,.15-1.07,.48-1.61,1.02-.82,.81-1.49,1.9-1.89,3.04-.4,1.14-.54,2.33-.31,3.34,.21,.92,.71,1.53,1.38,1.69,.18,.04,.37,.05,.57,.03-.57,1.41-.79,3-.49,4.34-.55,.11-1.14,.45-1.7,1.04-.85,.89-1.5,2.12-1.87,3.44s-.44,2.72-.14,3.93c.28,1.1,.84,1.85,1.57,2.11,.8,.27,1.74-.09,2.58-1.01,.28-.31,.54-.66,.77-1.05,.55-.93,.94-2.03,1.13-3.14,.19-1.11,.2-2.23-.02-3.2,.56-.1,1.14-.43,1.67-1.02,.27-.3,.52-.63,.74-1,.55-.9,.93-1.98,1.12-3.06,.19-1.08,.19-2.15-.04-3.06-.25-.99-.74-1.63-1.39-1.8-.18-.05-.36-.06-.56-.04,.55-1.38,.75-2.87,.52-4.03,.51-.13,1.06-.45,1.58-.99,.26-.27,.5-.58,.72-.91,.54-.81,.93-1.75,1.16-2.66,.22-.92,.27-1.81,.11-2.53-.17-.79-.58-1.25-1.16-1.32Zm-5.94,23.8c.37,1.45,0,3.47-.84,4.39-.49,.54-.96,.48-1.2,.4-.48-.16-.87-.7-1.06-1.46-.32-1.27-.04-2.92,.59-3.91,.1-.15,.2-.29,.31-.4,.49-.52,.95-.49,1.18-.42,.46,.14,.83,.65,1.03,1.4Zm3.58-8.05c.34,1.35-.03,3.26-.85,4.14-.48,.51-.93,.47-1.15,.4-.46-.14-.82-.64-1-1.35-.29-1.19,0-2.73,.61-3.67,.09-.14,.19-.27,.3-.38,.48-.5,.91-.48,1.13-.42,.44,.12,.79,.59,.96,1.28Zm-1.45-6.05c.28,1.2-.14,2.96-.96,3.81-.48,.5-.91,.48-1.13,.43-.44-.1-.78-.53-.92-1.17-.24-1.06,.09-2.46,.72-3.35,.1-.13,.2-.26,.31-.37,.48-.48,.9-.49,1.11-.45,.42,.08,.74,.47,.88,1.09Zm3.66-7.04c.24,1.08-.19,2.71-.97,3.52-.46,.47-.87,.47-1.07,.43-.41-.08-.72-.46-.85-1.03-.21-.96,.14-2.24,.75-3.07,.09-.13,.19-.24,.3-.34,.46-.46,.85-.48,1.05-.45,.39,.05,.68,.4,.8,.95Z"/><path class="cls-4" d="M108.09,96.45c-.58,.36-1.2,.84-1.82,1.42-.62,.57-1.25,1.24-1.84,1.97-1.3,1.6-2.26,3.26-2.76,4.69-.5,1.43-.54,2.63-.03,3.27,.6,.74,1.79,.49,3.18-.53-.07,.19-.16,.38-.22,.57-.55,1.68-.56,3-.02,3.69,.53,.7,1.52,.65,2.77-.16,.14-.09,.28-.21,.43-.32-.69,1.95-.79,3.66-.15,4.53,.64,.87,1.86,.66,3.24-.4-.07,.21-.15,.42-.2,.63-.5,1.85-.46,3.32,.11,4.11,.57,.8,1.57,.79,2.83-.03,.58-.38,1.18-.91,1.77-1.57,.6-.66,1.19-1.43,1.74-2.3,.4-.63,.77-1.26,1.09-1.9,.81-1.58,1.36-3.14,1.6-4.44s.15-2.35-.3-2.96h0c-.64-.84-1.84-.59-3.24,.45,.07-.2,.14-.4,.2-.59,.53-1.77,.54-3.1,.01-3.76-.53-.67-1.51-.58-2.78,.23-.14,.09-.29,.22-.44,.32,.73-1.88,.9-3.43,.31-4.14h0c-.59-.7-1.78-.4-3.17,.61,.08-.18,.15-.36,.22-.53,.59-1.59,.66-2.75,.18-3.29-.48-.54-1.44-.38-2.71,.41Zm10.03,12.33c.31,.41,.25,1.31-.09,2.41-.34,1.11-.95,2.42-1.76,3.66-.84,1.29-1.75,2.3-2.58,2.84-.42,.27-1.18,.65-1.56,.12-.38-.53-.16-1.65,0-2.26,.21-.78,.55-1.61,.99-2.44,.25-.47,.53-.94,.84-1.39,.81-1.21,1.7-2.14,2.46-2.68,.76-.53,1.39-.67,1.7-.26Zm-3.05-3.98h0c.36,.46,.11,1.5-.06,2.09-.35,1.16-1.01,2.48-1.86,3.73-.82,1.2-1.7,2.14-2.45,2.67-.75,.53-1.38,.66-1.69,.25-.5-.67-.02-2.57,1.07-4.51,.25-.44,.53-.89,.84-1.33,.86-1.21,1.79-2.17,2.62-2.7,.42-.27,1.18-.66,1.54-.2Zm-2.93-3.65c.29,.35,.19,1.15-.17,2.15-.37,1.01-1.01,2.22-1.85,3.38-.86,1.2-1.79,2.16-2.61,2.69-.42,.27-1.17,.64-1.53,.18-.36-.46-.11-1.47,.08-2.03,.23-.71,.59-1.47,1.05-2.23,.26-.43,.55-.86,.87-1.29,.84-1.12,1.74-2,2.5-2.52s1.38-.68,1.67-.33Z"/><path class="cls-4" d="M128.35,78.32c-1.41,1.12-2.69,2.46-3.61,3.75-.92,1.29-1.49,2.54-1.47,3.47,.01,1.08,.81,1.45,2.03,1.1-.12,.17-.25,.33-.36,.5-1.01,1.51-1.54,2.91-1.49,3.94,.06,1.21,.89,1.66,2.13,1.34-.12,.18-.24,.35-.35,.53-.98,1.6-1.48,3.1-1.39,4.24,.1,1.32,.96,1.85,2.22,1.57-.12,.18-.24,.36-.35,.55-.96,1.68-1.42,3.28-1.31,4.5,.64-.56,.96-.84,1.6-1.4-.08-.82,.44-1.89,.76-2.45,.62-1.12,1.5-2.18,2.47-3.02,1.86-1.62,3.51-1.88,3.64-.55,.63-.55,.94-.82,1.56-1.37-.13-1.38-.97-1.9-2.21-1.63,.11-.18,.23-.36,.33-.54,.94-1.64,1.4-3.15,1.31-4.25-.1-1.27-.9-1.72-2.11-1.41,.11-.17,.23-.34,.34-.51,.96-1.56,1.45-2.97,1.4-3.97-.05-1-.63-1.43-1.65-1.25-.11,.02-.25,.07-.37,.11,1.15-1.58,1.86-3.14,1.85-4.17,0-.89-.54-1.21-1.43-1.03-.89,.18-2.12,.85-3.53,1.97Zm3.95,11.61c.06,.74-.46,1.76-.77,2.3-.62,1.07-1.49,2.12-2.46,2.96-1.86,1.61-3.54,1.88-3.64,.62-.06-.76,.48-1.77,.8-2.31,.12-.21,.26-.41,.4-.61,.59-.84,1.31-1.63,2.09-2.29,1.86-1.58,3.48-1.9,3.58-.67Zm-.37-5.92c.03,.68-.5,1.64-.82,2.15-.64,1.02-1.52,2.03-2.48,2.84-1.86,1.57-3.52,1.9-3.57,.74-.03-.7,.52-1.65,.85-2.15,.13-.2,.27-.39,.41-.58,.6-.79,1.33-1.56,2.11-2.2,.97-.8,1.87-1.3,2.55-1.42,.34-.06,.92-.06,.95,.62Z"/><path class="cls-4" d="M99.66,128.09c-.96-.28-2.21,.59-3.37,2.19,.14-1.83-.02-3.44-.48-4.64-.46-1.21-1.22-2.02-2.26-2.29-.99-.26-2.1,0-3.21,.64s-2.22,1.68-3.2,3.01c-.98,1.33-1.84,2.97-2.44,4.82-.6,1.85-.88,3.67-.88,5.32,0,1.66,.28,3.16,.79,4.34,.51,1.19,1.25,2.06,2.19,2.45,1,.41,2.09,.22,3.18-.47s2.17-1.89,3.14-3.47c0,1.94,.47,3.35,1.4,3.71,.94,.36,2.11-.48,3.22-2.13-.03,2.04,.45,3.53,1.42,3.89,.96,.36,2.16-.5,3.3-2.19-.04,2.08,.45,3.59,1.43,3.95,.85,.31,1.88-.3,2.89-1.58s2.01-3.22,2.78-5.54c.77-2.32,1.13-4.49,1.08-6.13-.05-1.64-.51-2.76-1.38-3.02-1-.3-2.29,.62-3.5,2.31,.09-2.04-.35-3.47-1.34-3.76s-2.26,.61-3.45,2.27c.09-2-.34-3.39-1.32-3.67Zm-12.05,12.95c-1.03-.4-1.71-1.6-1.99-3.18-.28-1.58-.14-3.55,.52-5.57,.66-2.02,1.71-3.69,2.87-4.8,1.16-1.1,2.41-1.64,3.47-1.34s1.73,1.4,1.95,2.97c.22,1.57,0,3.61-.7,5.73-.7,2.12-1.72,3.88-2.82,5-1.1,1.12-2.28,1.59-3.3,1.19Zm20.76-7.56c.48,.15,.71,.92,.69,2.05-.02,1.12-.29,2.6-.8,4.13-.5,1.53-1.16,2.87-1.81,3.78-.65,.91-1.29,1.39-1.77,1.22-.48-.17-.72-.96-.72-2.09,0-1.13,.25-2.58,.74-4.09,.5-1.51,1.17-2.83,1.84-3.74,.67-.91,1.33-1.4,1.82-1.25Zm-4.83-1.5c.48,.15,.7,.9,.68,2.01-.02,1.1-.29,2.55-.78,4.05-.5,1.5-1.14,2.82-1.77,3.71-.63,.89-1.26,1.36-1.73,1.19s-.71-.95-.71-2.06,.23-2.53,.72-4.01c.49-1.48,1.15-2.78,1.81-3.66,.66-.89,1.31-1.37,1.79-1.22Zm-4.85,4.47c-.48,1.47-1.11,2.76-1.73,3.63-.62,.87-1.23,1.33-1.69,1.16-.46-.17-.7-.94-.7-2.02,0-1.08,.22-2.48,.7-3.92,.48-1.45,1.12-2.71,1.77-3.58s1.29-1.34,1.76-1.2c.47,.14,.69,.88,.67,1.96-.02,1.08-.28,2.5-.77,3.97Z"/></g><path class="cls-4" d="M136.25,191.37c.29-.64,.27-1.29-.05-1.46-1-.52-1.5-.78-2.51-1.32-.84-.45-1.06-1.54-.83-2.06,.23-.52,1.13-1,1.98-.54,1.01,.55,1.52,.82,2.53,1.35,.72,.38,1.55,.31,2.31-.1s1.46-1.18,1.93-2.2c.47-1.03,.6-2.09,.43-3.01-.17-.91-.64-1.68-1.38-2.08-1.03-.56-1.54-.84-2.57-1.42-.86-.48-1.09-1.61-.86-2.15,.23-.54,1.15-1.03,2.02-.54,1.04,.58,1.56,.87,2.59,1.44,.74,.41,1.58,.35,2.35-.07,.77-.42,1.48-1.2,1.95-2.27,.47-1.06,.59-2.18,.42-3.13-.18-.96-.66-1.76-1.41-2.18-1.04-.59-1.56-.89-2.61-1.5-.87-.51-1.11-1.68-.88-2.24,.23-.56,1.16-1.05,2.04-.54,1.05,.61,1.57,.92,2.62,1.52,.75,.43,1.59,.39,2.37-.04s1.48-1.23,1.94-2.33c.46-1.1,.58-2.25,.39-3.25-.19-.99-.67-1.83-1.42-2.28-1.05-.63-1.57-.94-2.62-1.58-.88-.53-1.11-1.74-.89-2.31,.23-.57,1.16-1.07,2.04-.54,1.05,.64,1.58,.96,2.62,1.6,.75,.46,1.59,.42,2.36,0,.77-.43,1.46-1.25,1.91-2.38,.45-1.12,.55-2.3,.36-3.32-.19-1.02-.69-1.87-1.43-2.34-1.04-.65-1.56-.98-2.61-1.64-.34-.21-.84,.2-1.12,.91-.28,.72-.24,1.47,.1,1.68,1.05,.65,1.57,.98,2.61,1.63,.87,.54,1.1,1.75,.88,2.32-.23,.57-1.14,1.07-2.01,.54-1.04-.64-1.57-.97-2.62-1.62-.75-.47-1.6-.44-2.38,0-.78,.43-1.48,1.27-1.94,2.4-.46,1.14-.57,2.32-.37,3.34,.19,1.02,.69,1.86,1.44,2.31,1.05,.63,1.58,.94,2.62,1.56,.87,.52,1.1,1.7,.87,2.25-.23,.55-1.16,1.05-2.03,.55-1.04-.61-1.57-.92-2.62-1.54-.75-.45-1.61-.41-2.39,.02-.78,.43-1.49,1.24-1.94,2.35-.46,1.11-.57,2.26-.38,3.25,.19,.98,.68,1.8,1.43,2.23,1.05,.6,1.57,.9,2.61,1.48,.87,.49,1.08,1.62,.85,2.16-.23,.54-1.16,1.03-2.02,.55-1.04-.58-1.55-.87-2.6-1.46-.75-.42-1.6-.38-2.37,.03s-1.47,1.21-1.93,2.28c-.45,1.07-.57,2.19-.38,3.14,.19,.95,.67,1.73,1.4,2.13,1.03,.57,1.54,.85,2.56,1.39,.85,.46,1.06,1.54,.82,2.06-.23,.52-1.15,1.01-1.99,.56-1.01-.54-1.52-.81-2.55-1.37-.73-.4-1.57-.35-2.33,.05-.76,.41-1.45,1.18-1.89,2.21-.45,1.03-.56,2.11-.38,3.02,.18,.91,.64,1.65,1.36,2.03,1,.53,1.5,.79,2.49,1.3,.32,.16,.82-.22,1.11-.86Z"/><g><path class="cls-4" d="M121.59,232.02c.63,.08,1.44-.32,2.22-1.09,.77-.75,1.41-1.73,1.82-2.76s.57-2.09,.41-2.99c.51-.15,1.07-.48,1.61-1.02,.82-.81,1.49-1.9,1.89-3.04,.4-1.14,.54-2.33,.31-3.34-.21-.92-.71-1.53-1.38-1.69-.18-.04-.37-.05-.57-.03,.57-1.41,.79-3,.49-4.34,.55-.11,1.14-.45,1.7-1.04,.85-.89,1.5-2.12,1.87-3.44,.37-1.32,.44-2.72,.14-3.93-.28-1.1-.84-1.86-1.57-2.11-.8-.28-1.74,.09-2.58,1.01-.28,.31-.54,.66-.77,1.05-.55,.93-.94,2.03-1.13,3.14-.19,1.11-.2,2.23,.02,3.2-.56,.1-1.14,.43-1.67,1.02-.27,.3-.52,.63-.74,1-.55,.9-.93,1.98-1.12,3.06-.19,1.08-.19,2.15,.04,3.06,.25,.99,.74,1.63,1.39,1.8,.18,.05,.36,.06,.56,.04-.55,1.38-.75,2.87-.52,4.03-.51,.13-1.06,.45-1.58,.99-.26,.27-.5,.58-.72,.91-.54,.81-.93,1.75-1.16,2.66-.22,.92-.27,1.81-.11,2.53,.17,.79,.58,1.25,1.16,1.32Zm5.94-23.8c-.37-1.45,0-3.47,.84-4.39,.49-.54,.96-.48,1.2-.4,.48,.16,.87,.7,1.06,1.46,.32,1.27,.04,2.92-.59,3.91-.1,.15-.2,.29-.31,.4-.49,.52-.95,.49-1.18,.42-.46-.14-.83-.65-1.03-1.4Zm-3.58,8.05c-.34-1.35,.03-3.26,.85-4.14,.48-.51,.93-.47,1.15-.4,.46,.14,.82,.64,1,1.35,.29,1.19,0,2.73-.61,3.67-.09,.14-.19,.27-.3,.38-.48,.5-.91,.48-1.13,.42-.44-.12-.79-.59-.96-1.28Zm1.45,6.05c-.28-1.2,.14-2.96,.96-3.81,.48-.5,.91-.48,1.13-.43,.44,.1,.78,.53,.92,1.17,.24,1.06-.09,2.46-.72,3.35-.1,.13-.2,.26-.31,.37-.48,.48-.9,.49-1.11,.45-.42-.08-.74-.47-.88-1.09Zm-3.66,7.04c-.24-1.08,.19-2.71,.97-3.52,.46-.47,.87-.47,1.07-.43,.41,.08,.72,.46,.85,1.03,.21,.96-.14,2.24-.75,3.07-.09,.13-.19,.24-.3,.34-.46,.46-.85,.48-1.05,.45-.39-.05-.68-.4-.8-.95Z"/><path class="cls-4" d="M163.2,199.35c.58-.36,1.2-.84,1.82-1.42,.62-.57,1.25-1.24,1.84-1.97,1.3-1.6,2.26-3.26,2.76-4.69s.54-2.63,.03-3.27c-.6-.74-1.79-.49-3.18,.53,.07-.19,.16-.38,.22-.57,.55-1.68,.56-3,.02-3.69-.53-.7-1.52-.65-2.77,.16-.14,.09-.28,.21-.43,.32,.69-1.95,.79-3.66,.15-4.53-.64-.87-1.86-.66-3.24,.4,.07-.21,.15-.42,.2-.63,.5-1.85,.46-3.32-.11-4.11-.57-.8-1.57-.79-2.83,.03-.58,.38-1.18,.91-1.77,1.57-.6,.66-1.19,1.43-1.74,2.3-.4,.63-.77,1.26-1.09,1.9-.81,1.58-1.36,3.14-1.6,4.44s-.15,2.35,.3,2.96h0c.64,.84,1.84,.59,3.24-.45-.07,.2-.14,.4-.2,.59-.53,1.77-.54,3.1-.01,3.76,.53,.67,1.51,.58,2.78-.23,.14-.09,.29-.22,.44-.33-.73,1.88-.9,3.43-.31,4.14h0c.59,.7,1.78,.4,3.17-.61-.08,.18-.15,.36-.22,.53-.59,1.59-.66,2.75-.18,3.29,.48,.54,1.44,.38,2.71-.41Zm-10.03-12.33c-.31-.41-.25-1.31,.09-2.41s.95-2.42,1.76-3.66c.84-1.29,1.75-2.3,2.58-2.84,.42-.27,1.18-.65,1.56-.12,.38,.53,.16,1.65,0,2.26-.21,.78-.55,1.61-.99,2.44-.25,.47-.53,.94-.84,1.39-.81,1.21-1.7,2.14-2.46,2.68-.76,.53-1.39,.67-1.7,.26Zm3.05,3.98h0c-.36-.46-.11-1.5,.06-2.09,.35-1.16,1.01-2.48,1.86-3.73,.82-1.2,1.7-2.14,2.45-2.67,.75-.53,1.38-.66,1.69-.25,.5,.67,.02,2.57-1.07,4.51-.25,.44-.53,.89-.84,1.33-.86,1.21-1.79,2.17-2.62,2.7-.42,.27-1.18,.66-1.54,.2Zm2.93,3.65c-.29-.35-.19-1.15,.17-2.15s1.01-2.22,1.85-3.38c.86-1.2,1.79-2.16,2.61-2.69,.42-.27,1.17-.64,1.53-.18,.36,.46,.11,1.47-.08,2.03-.23,.71-.59,1.47-1.05,2.23-.26,.43-.55,.86-.87,1.29-.84,1.12-1.74,2-2.5,2.52-.76,.52-1.38,.68-1.67,.33Z"/><path class="cls-4" d="M142.94,217.48c1.41-1.12,2.69-2.46,3.61-3.75s1.49-2.54,1.47-3.47c-.01-1.08-.81-1.45-2.03-1.09,.12-.17,.25-.33,.36-.5,1.01-1.51,1.54-2.91,1.49-3.94-.06-1.21-.89-1.66-2.13-1.34,.12-.18,.24-.35,.35-.53,.98-1.6,1.48-3.1,1.39-4.23-.1-1.32-.96-1.85-2.22-1.57,.12-.18,.24-.36,.35-.55,.96-1.68,1.42-3.28,1.31-4.5-.64,.56-.96,.84-1.6,1.4,.08,.82-.44,1.89-.76,2.45-.62,1.12-1.5,2.18-2.47,3.02-1.86,1.62-3.51,1.88-3.64,.55-.63,.55-.94,.82-1.56,1.37,.13,1.38,.97,1.9,2.21,1.63-.11,.18-.23,.36-.33,.54-.94,1.64-1.4,3.15-1.31,4.25,.1,1.27,.9,1.72,2.11,1.41-.11,.17-.23,.34-.34,.51-.96,1.56-1.45,2.97-1.4,3.97,.05,1,.63,1.43,1.65,1.25,.11-.02,.25-.07,.37-.11-1.15,1.58-1.86,3.14-1.85,4.17,0,.89,.55,1.21,1.43,1.03s2.12-.85,3.53-1.97Zm-3.95-11.61c-.06-.74,.46-1.76,.77-2.3,.62-1.07,1.49-2.12,2.46-2.96,1.86-1.61,3.54-1.88,3.64-.62,.06,.76-.48,1.77-.8,2.31-.12,.21-.26,.41-.4,.61-.59,.84-1.31,1.63-2.09,2.29-1.86,1.58-3.48,1.9-3.57,.66Zm.37,5.92c-.03-.68,.5-1.64,.82-2.15,.64-1.02,1.52-2.03,2.48-2.84,1.86-1.57,3.52-1.9,3.57-.74,.03,.7-.52,1.65-.85,2.15-.13,.2-.27,.39-.41,.58-.6,.79-1.33,1.56-2.11,2.2-.97,.8-1.87,1.3-2.55,1.42-.34,.06-.92,.06-.95-.62Z"/><path class="cls-4" d="M171.63,167.71c.96,.28,2.21-.59,3.37-2.19-.14,1.83,.02,3.44,.48,4.64,.46,1.21,1.22,2.02,2.26,2.29,.99,.26,2.1,0,3.21-.64s2.22-1.68,3.2-3.01,1.84-2.97,2.44-4.82c.6-1.85,.88-3.67,.88-5.32s-.28-3.16-.79-4.34-1.25-2.06-2.19-2.45c-1-.41-2.09-.22-3.18,.47-1.09,.7-2.17,1.89-3.14,3.47,0-1.94-.47-3.35-1.4-3.71-.94-.36-2.11,.48-3.22,2.13,.03-2.04-.45-3.53-1.42-3.89-.96-.36-2.16,.5-3.3,2.19,.04-2.08-.45-3.59-1.43-3.95-.85-.31-1.88,.3-2.89,1.58-1.01,1.28-2.01,3.22-2.78,5.54-.77,2.32-1.13,4.49-1.08,6.13s.51,2.76,1.38,3.02c1,.3,2.29-.62,3.5-2.31-.09,2.04,.35,3.47,1.34,3.76s2.26-.61,3.45-2.27c-.09,2,.34,3.39,1.32,3.67Zm12.05-12.95c1.03,.4,1.71,1.6,1.99,3.18s.14,3.55-.52,5.57c-.66,2.02-1.71,3.69-2.87,4.8-1.16,1.1-2.41,1.64-3.47,1.34s-1.73-1.4-1.94-2.97c-.22-1.57,0-3.61,.7-5.73,.7-2.12,1.72-3.88,2.82-5,1.1-1.12,2.28-1.59,3.3-1.19Zm-20.76,7.56c-.48-.15-.71-.92-.69-2.05,.02-1.12,.29-2.6,.8-4.13,.5-1.53,1.16-2.87,1.81-3.78,.65-.91,1.29-1.39,1.77-1.22,.48,.17,.72,.96,.72,2.09s-.25,2.58-.74,4.09c-.5,1.51-1.17,2.83-1.84,3.74-.67,.91-1.33,1.4-1.82,1.25Zm4.83,1.5c-.48-.15-.7-.9-.68-2.01,.02-1.1,.29-2.55,.78-4.05,.5-1.5,1.14-2.82,1.77-3.71,.64-.89,1.26-1.36,1.73-1.19,.47,.17,.71,.95,.71,2.06,0,1.11-.23,2.53-.72,4.01-.49,1.48-1.15,2.78-1.81,3.66-.66,.89-1.31,1.37-1.79,1.22Zm4.85-4.47c.48-1.47,1.11-2.76,1.73-3.63,.62-.87,1.23-1.33,1.69-1.16,.46,.17,.7,.94,.7,2.02s-.22,2.48-.7,3.93c-.48,1.45-1.12,2.71-1.77,3.58-.65,.87-1.29,1.34-1.76,1.2-.47-.14-.69-.88-.67-1.96,.02-1.08,.28-2.5,.77-3.97Z"/></g><path class="cls-4" d="M141.88,137.66c-.35-.21-.86,.21-1.14,.93-.44,1.11-.77,1.95-1.1,2.79-.33,.84-.66,1.68-1.1,2.8-.74,1.87-1.65,2.88-1.93,2.72-.28-.16-.21-1.66,.53-3.54,.44-1.12,.78-1.96,1.11-2.8s.66-1.67,1.1-2.78c.63-1.59,.97-3.13,1.02-4.34s-.2-2.11-.74-2.43c-.55-.32-1.28,.01-2.03,.82-.75,.81-1.53,2.09-2.16,3.67-.44,1.11-.77,1.94-1.11,2.77-.33,.83-.67,1.67-1.11,2.79-.74,1.87-1.65,2.87-1.93,2.71-.28-.16-.2-1.65,.54-3.52,.44-1.12,.78-1.95,1.11-2.79,.33-.83,.67-1.66,1.11-2.77,.63-1.58,.99-3.11,1.04-4.31,.06-1.2-.18-2.09-.72-2.39-.54-.31-1.27,.03-2.03,.83s-1.54,2.07-2.17,3.64c-.45,1.1-.78,1.92-1.11,2.75-.33,.83-.67,1.66-1.11,2.77-.74,1.85-1.65,2.85-1.92,2.69-.27-.16-.19-1.64,.55-3.48,.45-1.11,.78-1.93,1.11-2.76s.67-1.65,1.12-2.74c.64-1.57,1-3.07,1.07-4.26,.07-1.18-.16-2.05-.7-2.34s-1.26,.04-2.02,.84c-.76,.8-1.54,2.05-2.18,3.6-.45,1.08-.78,1.9-1.12,2.71-.34,.82-.67,1.64-1.12,2.73-.74,1.83-1.64,2.82-1.91,2.66s-.19-1.61,.56-3.43c.45-1.09,.78-1.91,1.12-2.72,.34-.81,.67-1.63,1.12-2.7,.64-1.54,1.01-3.02,1.09-4.19,.08-1.16-.14-2.01-.67-2.29-.53-.28-1.25,.06-2.01,.85s-1.54,2.02-2.19,3.55c-.45,1.06-.79,1.86-1.13,2.67-.34,.8-.67,1.61-1.12,2.69-.29,.7-.25,1.42,.09,1.61,.34,.19,.84-.22,1.13-.92,.45-1.08,.78-1.89,1.12-2.7s.67-1.61,1.12-2.68c.75-1.78,1.66-2.73,1.92-2.59,.27,.14,.17,1.54-.58,3.32-.45,1.07-.79,1.88-1.12,2.69-.34,.81-.67,1.62-1.12,2.71-.64,1.56-1,3.08-1.06,4.29-.06,1.21,.16,2.11,.7,2.43s1.26-.03,2.01-.85c.75-.82,1.53-2.12,2.17-3.69,.45-1.1,.78-1.92,1.12-2.74s.67-1.64,1.12-2.72c.75-1.81,1.65-2.77,1.92-2.62,.27,.15,.18,1.57-.56,3.38-.45,1.09-.78,1.91-1.12,2.73-.33,.82-.67,1.65-1.11,2.75-.64,1.58-1,3.13-1.06,4.36-.06,1.23,.17,2.15,.71,2.47,.54,.32,1.27-.03,2.03-.85s1.54-2.14,2.18-3.73c.45-1.11,.78-1.94,1.11-2.77,.33-.83,.67-1.66,1.11-2.76,.74-1.83,1.64-2.8,1.92-2.64,.27,.16,.2,1.6-.54,3.43-.44,1.1-.78,1.93-1.11,2.76s-.67,1.66-1.11,2.78c-.64,1.6-.99,3.16-1.05,4.4s.18,2.17,.73,2.49c.55,.32,1.29-.02,2.05-.85,.76-.83,1.55-2.15,2.19-3.76,.44-1.12,.78-1.96,1.11-2.79s.66-1.67,1.1-2.78c.73-1.84,1.64-2.82,1.91-2.66s.21,1.62-.52,3.47c-.44,1.11-.77,1.94-1.1,2.78-.33,.84-.66,1.68-1.11,2.8-.64,1.61-.99,3.18-1.05,4.43s.19,2.18,.74,2.5c.55,.33,1.3-.02,2.06-.85,.76-.83,1.55-2.15,2.19-3.77,.44-1.12,.77-1.96,1.1-2.8,.33-.84,.66-1.68,1.1-2.79,.28-.72,.23-1.47-.12-1.67Z"/><path class="cls-4" d="M156.45,131.21c-.2-.48-.65-.44-1.03,.1-.58,.84-1.02,1.47-1.46,2.1s-.88,1.27-1.48,2.12c-.99,1.42-1.89,1.79-2.05,1.4-.16-.39,.28-1.92,1.27-3.33,.59-.85,1.04-1.48,1.48-2.11s.88-1.26,1.46-2.1c.83-1.2,1.44-2.55,1.76-3.79,.32-1.24,.37-2.37,.06-3.12-.31-.75-.89-.96-1.61-.69-.72,.27-1.57,1.03-2.4,2.22-.58,.83-1.02,1.45-1.46,2.08-.44,.63-.88,1.25-1.48,2.1-.99,1.4-1.9,1.77-2.05,1.39-.16-.38,.28-1.9,1.27-3.3,.6-.84,1.04-1.47,1.48-2.09,.44-.62,.88-1.25,1.46-2.07,.83-1.18,1.45-2.52,1.77-3.74s.38-2.33,.07-3.07c-.3-.73-.89-.93-1.61-.66-.72,.27-1.58,1.02-2.41,2.19-.58,.82-1.03,1.43-1.47,2.05-.44,.62-.89,1.24-1.49,2.07-1,1.38-1.91,1.75-2.06,1.37-.16-.37,.28-1.86,1.28-3.24,.6-.83,1.05-1.44,1.49-2.06,.45-.61,.89-1.23,1.47-2.04,.84-1.17,1.46-2.48,1.8-3.68,.34-1.2,.39-2.28,.09-2.99-.3-.71-.88-.9-1.6-.62s-1.58,1.02-2.43,2.17c-.59,.8-1.04,1.41-1.48,2.02-.45,.61-.9,1.22-1.5,2.03-1,1.36-1.9,1.73-2.05,1.37-.15-.36,.3-1.81,1.31-3.16,.6-.81,1.05-1.42,1.5-2.02,.45-.6,.89-1.21,1.48-2.01,.85-1.14,1.48-2.43,1.83-3.6,.35-1.17,.42-2.21,.13-2.89-.28-.68-.86-.84-1.58-.55s-1.58,1.02-2.43,2.15c-1.19,1.57-1.79,2.37-3,3.97-.39,.52-.56,1.29-.38,1.73,.18,.44,.65,.37,1.04-.15,1.21-1.61,1.81-2.41,2.99-3.99,.99-1.32,1.85-1.66,1.99-1.32,.14,.34-.28,1.73-1.27,3.06-.59,.79-1.04,1.39-1.49,2-.45,.6-.9,1.2-1.5,2.01-.87,1.16-1.53,2.48-1.9,3.69-.37,1.21-.45,2.31-.16,3.03,.3,.72,.91,.9,1.66,.6,.75-.3,1.65-1.07,2.51-2.25,.6-.82,1.05-1.43,1.5-2.04,.45-.61,.89-1.22,1.48-2.02,.98-1.34,1.85-1.68,2-1.32,.15,.36-.26,1.79-1.24,3.14-.59,.81-1.03,1.42-1.48,2.03-.45,.61-.89,1.23-1.5,2.05-.86,1.18-1.52,2.53-1.88,3.77-.36,1.24-.43,2.37-.13,3.12,.31,.75,.93,.94,1.69,.64s1.65-1.08,2.51-2.27c.6-.83,1.04-1.46,1.49-2.07,.44-.62,.88-1.24,1.47-2.06,.97-1.37,1.84-1.7,1.99-1.33,.15,.37-.25,1.83-1.22,3.2-.58,.82-1.02,1.44-1.46,2.07-.44,.62-.89,1.25-1.48,2.08-.86,1.2-1.51,2.57-1.87,3.84-.36,1.26-.43,2.42-.12,3.18,.31,.76,.93,.96,1.68,.66,.75-.3,1.64-1.09,2.5-2.3,.59-.84,1.04-1.47,1.48-2.1,.44-.63,.88-1.25,1.46-2.09,.97-1.38,1.83-1.72,1.98-1.34,.15,.38-.24,1.86-1.2,3.25-.58,.83-1.02,1.46-1.46,2.09-.44,.63-.88,1.26-1.48,2.11-.85,1.22-1.5,2.61-1.86,3.89-.36,1.28-.43,2.45-.12,3.22,.31,.77,.92,.97,1.67,.67s1.64-1.1,2.49-2.32c.59-.85,1.04-1.49,1.48-2.12,.44-.63,.88-1.27,1.46-2.11,.37-.54,.52-1.37,.32-1.86Z"/><g><path class="cls-4" d="M188.78,131.46c.27-1.5,.21-2.97-.15-4.07-.35-1.08-.92-1.65-1.57-1.7-.66-.05-1.41,.43-2.14,1.45,.05-.98-.03-1.9-.26-2.63-.35-1.11-.94-1.68-1.65-1.69-.7-.01-1.51,.53-2.31,1.66-.73,1.03-1.33,2.4-1.68,3.85-.09,.39-.17,.78-.22,1.16-.82-.26-1.89,.28-2.96,1.64,.12-1.02,.08-1.97-.14-2.72-.33-1.13-.97-1.67-1.77-1.62-.79,.05-1.74,.68-2.68,1.92-.86,1.12-1.59,2.58-2.05,4.11-.5,1.66-.61,3.28-.3,4.41,.11,.38,.25,.7,.44,.94,.87,1.16,2.53,.69,4.1-1.25-.14,1.04-.13,2.01,.08,2.75,.11,.38,.25,.69,.43,.93,.44,.59,1.08,.77,1.81,.54,.72-.23,1.53-.86,2.3-1.86,.84-1.1,1.51-2.51,1.89-3.97,.1-.4,.18-.79,.23-1.17,.83,.25,1.89-.29,2.85-1.58-.08,1-.03,1.93,.19,2.66,.11,.37,.26,.68,.43,.93,.85,1.2,2.36,.82,3.64-1.01,.7-1,1.22-2.31,1.47-3.68Zm-15.76,3.38c-1.17,1.52-2.47,1.88-2.8,.74-.19-.66,.03-1.6,.18-2.1,.3-1,.82-2.03,1.42-2.82,1.01-1.31,2.06-1.71,2.54-1.05,.07,.1,.13,.22,.17,.37,.19,.66,0,1.58-.13,2.06-.27,.99-.77,2-1.38,2.79Zm4.49,2.52c-1.13,1.48-2.4,1.83-2.72,.7-.19-.66,.02-1.58,.16-2.07,.28-.99,.78-2,1.36-2.77,.97-1.28,1.99-1.66,2.46-1,.07,.1,.13,.22,.17,.37,.2,.66,.02,1.56-.11,2.04-.25,.97-.73,1.96-1.32,2.73Zm5.05-6.84c-.99,1.39-2.16,1.66-2.5,.54-.2-.66-.03-1.55,.08-2.02,.23-.95,.65-1.92,1.16-2.64,.85-1.2,1.77-1.51,2.22-.84,.07,.1,.13,.23,.17,.37,.2,.65,.08,1.52-.02,1.98-.2,.93-.6,1.88-1.11,2.6Zm4.15,2.73c-.94,1.35-2.07,1.59-2.41,.49-.2-.65-.06-1.52,.05-1.99,.2-.93,.6-1.87,1.08-2.57,.8-1.17,1.68-1.44,2.13-.78,.07,.1,.13,.22,.17,.37,.21,.64,.1,1.5,.01,1.95-.17,.91-.55,1.83-1.03,2.53Z"/><path class="cls-3" d="M177.05,76.53c-.18-1.41-.57-2.74-1.09-3.77-.57-1.11-1.21-1.68-1.82-1.71s-1.2,.48-1.63,1.54c-.51,1.24-.66,2.92-.44,4.56-.08-.02-.17-.06-.25-.06-.76-.04-1.47,.56-1.98,1.7-.52,1.14-.76,2.65-.65,4.25,.01,.18,.04,.35,.06,.53-.91-.18-1.84,.43-2.53,1.84-.34,.71-.58,1.52-.7,2.38-.12,.86-.14,1.76-.04,2.65-.1-.01-.2-.05-.31-.04-.93,.02-1.8,.74-2.46,2.02-.66,1.28-1,2.93-.92,4.64,.07,1.57,.49,3.04,1.18,4.13,.25,.39,.52,.72,.8,.97,.71,.64,1.49,.83,2.23,.6,.73-.23,1.41-.9,1.92-1.98h0c.36-.75,.58-1.61,.7-2.51s.11-1.83,0-2.74c.1,.02,.2,.04,.3,.04,.91,0,1.71-.67,2.25-1.91,.54-1.23,.74-2.83,.59-4.49-.02-.19-.05-.37-.08-.55,.9,.22,1.76-.34,2.29-1.69h0c.53-1.35,.61-3.13,.36-4.82,.08,.02,.16,.05,.25,.06,.74,.08,1.36-.47,1.73-1.56,.37-1.09,.44-2.53,.25-4.07Zm-9.46,22.89c-.69,1.45-2.14,1.35-3.13-.21-.51-.81-.82-1.88-.88-3-.03-.57,0-1.65,.44-2.51,.44-.87,1.03-1.01,1.34-1.02,.39-.01,.78,.16,1.14,.49,.2,.19,.4,.43,.57,.72,.47,.77,.77,1.79,.87,2.8,.09,1.01-.01,2.01-.36,2.73Zm3.28-7.1h0c-.37,.83-.92,.95-1.22,.95-.59,0-1.19-.45-1.67-1.25-.47-.77-.76-1.77-.84-2.74-.09-.97,.03-1.92,.35-2.6,.53-1.11,1.47-1.23,2.29-.42,.19,.19,.37,.42,.53,.71,.47,.79,.77,1.83,.86,2.92,.05,.55,.07,1.61-.3,2.44Zm2.85-6.72c-.52,1.3-1.75,1.11-2.63-.41-.46-.79-.75-1.8-.83-2.85-.04-.53-.05-1.53,.29-2.3,.34-.77,.83-.87,1.09-.85,.33,.02,.66,.2,.96,.54,.17,.19,.34,.43,.5,.71,.42,.75,.7,1.72,.82,2.66s.07,1.86-.19,2.51Z"/><path class="cls-4" d="M183.79,99.17c-.44-1.79-1.02-3.13-1.62-3.86-.6-.73-1.23-.86-1.78-.2-.65,.77-1.03,2.41-1.09,4.38-.07-.11-.15-.23-.22-.33-.7-.83-1.43-.89-2.08-.17-.76,.84-1.25,2.56-1.38,4.59-.08-.11-.15-.23-.24-.32-.74-.81-1.54-.83-2.28-.05-.43,.45-.79,1.13-1.07,1.95s-.48,1.79-.58,2.83c-.08-.11-.16-.23-.25-.32-.78-.79-1.65-.77-2.46,.06,.15,.83,.23,1.25,.39,2.09,.55-.56,1.07-.21,1.33,.05,.52,.52,.94,1.51,1.18,2.8,.24,1.24,.27,2.58,.12,3.74-.15,1.15-.47,2.12-.94,2.6,.16,.85,.24,1.28,.39,2.14,.49-.5,.89-1.21,1.2-2.07,.31-.85,.52-1.85,.62-2.91,.08,.11,.17,.22,.25,.31,.8,.8,1.67,.79,2.44-.02,.44-.47,.8-1.15,1.07-1.98s.43-1.79,.5-2.82c.08,.11,.16,.22,.24,.31,.76,.82,1.58,.85,2.26,.09,.68-.75,1.13-2.17,1.26-3.98,.01-.2,.01-.42,.02-.62,.75,1.08,1.62,1.35,2.3,.54,.59-.69,.92-2.01,.98-3.59,.06-1.59-.14-3.44-.58-5.24Zm-8.47,15.17c-.51,.54-1.03,.18-1.29-.09-.52-.53-.94-1.53-1.19-2.81-.24-1.24-.28-2.56-.15-3.69s.41-2.05,.83-2.48c.5-.53,.99-.16,1.24,.11,.1,.1,.19,.22,.28,.36,.37,.56,.68,1.41,.89,2.43,.25,1.22,.31,2.54,.21,3.67-.11,1.12-.39,2.06-.81,2.51Zm4.04-4.36c-.46,.51-.95,.12-1.2-.15-.5-.54-.91-1.54-1.18-2.81-.26-1.22-.32-2.52-.24-3.61,.08-1.09,.32-1.98,.69-2.39,.44-.49,.9-.1,1.14,.17,.09,.11,.18,.23,.27,.37,.36,.57,.66,1.41,.89,2.42,.28,1.25,.39,2.6,.29,3.8-.05,.6-.2,1.7-.66,2.2Z"/><path class="cls-4" d="M162.18,78.24c.48-1.58,.4-3.12-.07-4.25,.94-.46,1.85-1.32,2.63-2.45,.78-1.14,1.42-2.55,1.86-4.13,.42-1.5,.6-2.96,.6-4.26,0-1.3-.19-2.43-.53-3.29s-.86-1.45-1.54-1.67c-.68-.22-1.45-.04-2.25,.45-.8,.49-1.64,1.29-2.42,2.33-.79,1.04-1.53,2.31-2.1,3.76-.61,1.53-.95,3.06-1.01,4.43-.06,1.38,.16,2.6,.65,3.52-1.05,.64-2.02,1.82-2.58,3.34-.58,1.56-.57,3.09-.07,4.23-1.14,.66-2.19,1.93-2.8,3.58-.6,1.65-.59,3.28-.05,4.49-1.21,.69-2.31,2.02-2.93,3.76-.54,1.5-.6,2.99-.24,4.19s1.14,2.12,2.24,2.48,2.28,.09,3.29-.66,1.86-1.98,2.33-3.5c.55-1.77,.47-3.49-.08-4.76,1.17-.66,2.16-1.95,2.67-3.64,.52-1.68,.44-3.32-.08-4.53,1.1-.62,2.02-1.85,2.5-3.44Zm-2.65-13.24c.6-1.58,1.46-2.88,2.35-3.73,.88-.85,1.79-1.26,2.55-1.01,.76,.25,1.24,1.1,1.44,2.3s.1,2.75-.38,4.37c-.48,1.62-1.25,2.99-2.15,3.89-.9,.89-1.92,1.3-2.81,1.02-.89-.29-1.45-1.21-1.63-2.46s.03-2.8,.63-4.37Zm-3.54,29.17c-.54,1.71-2.22,2.75-3.66,2.27-1.44-.47-2.16-2.3-1.56-3.99,.59-1.69,2.27-2.74,3.66-2.28,1.39,.46,2.11,2.29,1.56,4Zm2.65-8.38c-.51,1.62-2.1,2.61-3.47,2.16-1.37-.45-2.05-2.18-1.48-3.78,.57-1.61,2.16-2.61,3.47-2.18,1.32,.43,1.99,2.18,1.48,3.8Zm-.77-5.9c-1.29-.42-1.92-2.05-1.38-3.56,.54-1.51,2.04-2.47,3.27-2.07,1.23,.4,1.86,2.05,1.38,3.59-.48,1.54-1.97,2.47-3.27,2.05Z"/></g></g></svg>