<?xml version="1.0" encoding="UTF-8"?><svg id="Artwork" xmlns="http://www.w3.org/2000/svg" xmlns:xlink="http://www.w3.org/1999/xlink" viewBox="0 0 300 300"><defs><style>.cls-1,.cls-2,.cls-3{fill:none;}.cls-4{fill:#fff;}.cls-4,.cls-5,.cls-6,.cls-7,.cls-8,.cls-9,.cls-10,.cls-11,.cls-2,.cls-3{stroke:#1e1e1e;stroke-width:.55px;}.cls-4,.cls-6,.cls-7,.cls-8,.cls-9,.cls-10,.cls-11,.cls-2{stroke-miterlimit:10;}.cls-5{fill:#f5f3ee;stroke-linecap:round;}.cls-5,.cls-3{stroke-linejoin:round;}.cls-6{fill:url(#linear-gradient-3);}.cls-7{fill:url(#linear-gradient-4);}.cls-8{fill:url(#linear-gradient-6);}.cls-9{fill:url(#linear-gradient-2);}.cls-10{fill:url(#linear-gradient-5);}.cls-11{fill:url(#linear-gradient);}</style><linearGradient id="linear-gradient" x1="205.14" y1="159.83" x2="231.09" y2="159.83" gradientUnits="userSpaceOnUse"><stop offset="0" stop-color="#fff"/><stop offset="1" stop-color="#d2d2d2"/></linearGradient><linearGradient id="linear-gradient-2" x1="-174.89" y1="3394.02" x2="-155.87" y2="3394.02" gradientTransform="translate(-2815.75 -1283.92) rotate(-67.45)" gradientUnits="userSpaceOnUse"><stop offset="0" stop-color="#fff"/><stop offset="1" stop-color="#d2d2d2"/></linearGradient><linearGradient id="linear-gradient-3" x1="165.2" y1="150" x2="123.97" y2="150" gradientUnits="userSpaceOnUse"><stop offset="0" stop-color="#fff"/><stop offset="1" stop-color="#d2d2d2"/></linearGradient><linearGradient id="linear-gradient-4" x1="194.53" y1="150" x2="165.52" y2="150" gradientUnits="userSpaceOnUse"><stop offset="0" stop-color="#fff"/><stop offset="1" stop-color="#d2d2d2"/></linearGradient><linearGradient id="linear-gradient-5" x1="180.45" y1="150" x2="150.85" y2="150" gradientUnits="userSpaceOnUse"><stop offset="0" stop-color="#fff"/><stop offset="1" stop-color="#d2d2d2"/></linearGradient><linearGradient id="linear-gradient-6" x1="127.52" y1="139.97" x2="132.26" y2="146.85" gradientUnits="userSpaceOnUse"><stop offset="0" stop-color="#fff"/><stop offset="1" stop-color="#d2d2d2"/></linearGradient></defs><g><circle class="cls-5" cx="243.36" cy="143.51" r="10.82"/><path class="cls-2" d="M251.3,150.87c-1.46,1.58-6.2-.44-10.59-4.51-4.38-4.07-6.75-8.64-5.28-10.22"/></g><path class="cls-4" d="M230.26,183.27H109.17c-5.39,0-9.75-14.83-9.75-33.11,0-18.29,4.37-33.11,9.75-33.11h121.09c5.39,0,9.75,14.83,9.75,33.11,0,18.29-4.37,33.11-9.75,33.11Z"/><g><circle class="cls-5" cx="177.55" cy="155.93" r="9.15"/><path class="cls-2" d="M183.58,162.81c-1.37,1.2-5.18-.91-8.51-4.71-3.33-3.8-4.93-7.85-3.56-9.05"/></g><line class="cls-2" x1="230.26" y1="121.8" x2="114.05" y2="121.8"/><line class="cls-2" x1="230.26" y1="178.52" x2="114.05" y2="178.52"/><path class="cls-1" d="M168.99,209.83c1.75,2.23,3.09,2.89,3.57,2.89,.99,0,5.55-2.73,9.85-16.08,3.99-12.39,6.19-28.96,6.19-46.65s-2.2-34.26-6.19-46.65c-4.3-13.35-8.87-16.08-9.85-16.08-.48,0-1.82,.66-3.57,2.89,6.82,11.56,11.45,34.02,11.45,59.83s-4.63,48.27-11.45,59.83Z"/><ellipse class="cls-2" cx="109.17" cy="150.16" rx="9.75" ry="33.11"/><line class="cls-2" x1="230.26" y1="117.04" x2="109.17" y2="117.04"/><line class="cls-2" x1="230.26" y1="183.27" x2="109.17" y2="183.27"/><path class="cls-2" d="M109.17,117.04c5.39,0,9.75,14.83,9.75,33.11,0,18.29-4.37,33.11-9.75,33.11"/><path class="cls-2" d="M230.26,117.04c5.39,0,9.75,14.83,9.75,33.11,0,18.29-4.37,33.11-9.75,33.11"/><g><circle class="cls-11" cx="218.12" cy="159.83" r="12.97"/><path class="cls-2" d="M211.53,171c-2.22-1.31-1.07-7.38,2.57-13.55,3.64-6.17,8.39-10.12,10.61-8.81"/></g><g><circle class="cls-9" cx="255.41" cy="170.27" r="9.51"/><path class="cls-2" d="M261.13,177.87c-1.51,1.14-5.29-1.35-8.45-5.54-3.16-4.2-4.49-8.52-2.98-9.66"/></g><g><circle class="cls-4" cx="208.08" cy="135.17" r="8.58"/><path class="cls-4" d="M210.06,143.51c-1.66,.39-3.89-3.02-4.99-7.63-1.09-4.61-.64-8.66,1.02-9.06"/></g><g><circle class="cls-4" cx="148.52" cy="135.44" r="6.89"/><path class="cls-4" d="M153.31,140.4c-.99,.95-3.93-.5-6.57-3.24-2.64-2.74-3.98-5.73-2.99-6.68"/></g><g><circle class="cls-5" cx="143.9" cy="163.08" r="9.15"/><path class="cls-3" d="M141.61,171.93c-1.76-.46-2.16-4.79-.89-9.68,1.27-4.89,3.72-8.49,5.48-8.03"/></g><path class="cls-6" d="M124.13,117.02c3.93-19.07,11.31-35.15,19.1-35.15,2.68,0,5.25,1.49,7.62,4.22,1.18,1.36,2.32,3.03,3.39,4.97,1.31,2.36,2.53,5.11,3.65,8.22,1.12,3.12,2.14,6.59,3.03,10.36,2.68,11.3,4.27,25.25,4.27,40.36s-1.59,29.06-4.27,40.36c-.9,3.77-1.91,7.24-3.03,10.36-1.12,3.11-2.34,5.87-3.65,8.22-1.08,1.94-2.21,3.62-3.39,4.97-2.37,2.72-4.94,4.22-7.62,4.22-8.54,0-15.62-12.76-19.26-34.84h5.98c.98,5.73,1.91,8.66,3.43,13.36,4.3,13.35,8.87,16.08,9.85,16.08,.54,0,2.16-.83,4.23-3.78,1.05-1.5,2.2-3.54,3.39-6.3,.74-1.71,1.49-3.69,2.23-6,.64-1.99,1.23-4.1,1.78-6.29,1.28-5.13,2.3-10.79,3.03-16.8,.9-7.41,1.38-15.36,1.38-23.55s-.48-16.14-1.38-23.55c-.73-6.02-1.75-11.67-3.03-16.8-.55-2.19-1.14-4.3-1.78-6.29-.74-2.3-1.49-4.28-2.23-6-1.19-2.76-2.35-4.8-3.39-6.3-2.06-2.95-3.69-3.78-4.23-3.78-.99,0-5.55,2.73-9.85,16.08-.98,3.03-2.28,9.93-3.09,13.67h-6.15Z"/><path class="cls-7" d="M172.56,87.27c.99,0,5.55,2.73,9.85,16.08,3.99,12.39,6.19,28.95,6.19,46.65s-2.2,34.26-6.19,46.65c-4.3,13.35-8.87,16.08-9.85,16.08-.48,0-1.82-.66-3.57-2.89-1.1,1.87-2.26,3.44-3.47,4.7,2.21,2.32,4.58,3.6,7.04,3.6,12.13,0,21.97-30.51,21.97-68.14s-9.84-68.14-21.97-68.14c-2.46,0-4.83,1.28-7.04,3.6,1.21,1.27,2.37,2.83,3.47,4.7,1.75-2.23,3.09-2.89,3.57-2.89Z"/><path class="cls-10" d="M158.48,87.27c.48,0,1.82,.66,3.57,2.89,1.04,1.33,2.23,3.23,3.47,5.89,.92,1.98,1.87,4.38,2.81,7.29,3.99,12.39,6.19,28.95,6.19,46.65s-2.2,34.26-6.19,46.65c-.94,2.91-1.89,5.31-2.81,7.29-1.24,2.66-2.43,4.56-3.47,5.89-1.75,2.23-3.09,2.89-3.57,2.89-.54,0-2.16-.83-4.23-3.78-1.08,1.94-2.21,3.62-3.39,4.97,2.37,2.72,4.94,4.22,7.62,4.22,2.46,0,4.83-1.28,7.04-3.6,1.21-1.27,2.37-2.83,3.47-4.7,6.82-11.56,11.45-34.02,11.45-59.83s-4.63-48.27-11.45-59.83c-1.1-1.87-2.26-3.44-3.47-4.7-2.21-2.32-4.58-3.6-7.04-3.6-2.68,0-5.25,1.49-7.62,4.22,1.18,1.36,2.32,3.03,3.39,4.97,2.06-2.95,3.69-3.78,4.23-3.78Z"/><g><circle class="cls-8" cx="130.84" cy="144.78" r="7.07"/><path class="cls-2" d="M124.18,147.18c-.48-1.32,2.11-3.47,5.79-4.8,3.67-1.33,7.04-1.33,7.52-.01"/></g><path class="cls-5" d="M96.39,178.09c12.4,0,17.48-12.31,17.48-27.51s-5.09-27.5-17.48-27.5c-2.52,0-6.55,1.14-11.37,2.95-5.87,2.21-12.91,5.41-19.83,8.78h0s0,0,0,0c-15.36,7.48-30.11,15.77-30.11,15.77,0,0,38.6,18.42,53.31,25.66,0-.01,.01-.02,.02-.03,2.85,1.27,6.17,1.87,7.98,1.87Z"/></svg>