<?xml version="1.0" encoding="UTF-8"?><svg id="Artwork" xmlns="http://www.w3.org/2000/svg" xmlns:xlink="http://www.w3.org/1999/xlink" viewBox="0 0 300 300"><defs><style>.cls-1,.cls-2,.cls-3,.cls-4,.cls-5,.cls-6,.cls-7,.cls-8,.cls-9,.cls-10{stroke:#1e1e1e;stroke-linecap:round;stroke-linejoin:round;stroke-width:.55px;}.cls-1,.cls-10{fill:#fff;}.cls-2{fill:#f5f3ee;}.cls-3{fill:#fbfaf8;}.cls-4{fill:url(#linear-gradient-4);}.cls-5{fill:url(#linear-gradient-3);}.cls-6{fill:url(#linear-gradient-2);}.cls-7{fill:url(#linear-gradient-5);}.cls-8{fill:url(#linear-gradient);}.cls-9{fill:none;}.cls-10{opacity:.6;}</style><linearGradient id="linear-gradient" x1="-143.89" y1="-845.65" x2="-143.89" y2="-918.9" gradientTransform="translate(-286.18 960.53) rotate(34.8)" gradientUnits="userSpaceOnUse"><stop offset="0" stop-color="#f5f3ee"/><stop offset="1" stop-color="#d2d2d2"/></linearGradient><linearGradient id="linear-gradient-2" x1="122.44" y1="128.02" x2="145.46" y2="128.02" gradientTransform="matrix(1, 0, 0, 1, 0, 0)" xlink:href="#linear-gradient"/><linearGradient id="linear-gradient-3" x1="-170.61" y1="-867.18" x2="-170.61" y2="-943.31" xlink:href="#linear-gradient"/><linearGradient id="linear-gradient-4" x1="-61.81" y1="-970.78" x2="-61.81" y2="-990.83" xlink:href="#linear-gradient"/><linearGradient id="linear-gradient-5" x1="237.8" y1="85.37" x2="256.66" y2="85.37" gradientTransform="matrix(1, 0, 0, 1, 0, 0)" xlink:href="#linear-gradient"/></defs><g><path class="cls-1" d="M109.29,205.46c1.23-.44,2.1-1.13,1.96-1.55l2.95,8.28h0c.15,.42-.73,1.11-1.96,1.55s-2.35,.45-2.5,.04l-2.95-8.28c.15,.42,1.27,.4,2.5-.04Z"/><path class="cls-1" d="M119.5,201.82c1.23-.44,2.1-1.13,1.96-1.55l2.95,8.28h0c.15,.42-.73,1.11-1.96,1.55s-2.35,.45-2.5,.04l-2.95-8.28c.15,.42,1.27,.4,2.5-.04Z"/></g><polygon class="cls-1" points="176.91 62.71 158.03 64.5 106.37 60.67 176.91 62.71 176.91 62.71"/><g><line class="cls-9" x1="163.3" y1="163.4" x2="163.3" y2="239.33"/><g><path class="cls-2" d="M163.3,212.37c-1.03,0-1.87-.28-1.87-.63v7.59c0,.35,.84,2.66,1.87,2.66s1.87-2.31,1.87-2.66v-7.6c0,.35-.84,.64-1.87,.64Z"/><path class="cls-2" d="M163.3,203.96c-1.53,0-2.77-.42-2.77-.94v11.28c0,.52,1.24,.94,2.77,.94s2.77-.42,2.77-.94v-11.28c0,.52-1.24,.94-2.77,.94Z"/><path class="cls-1" d="M163.3,197.5c-2.23,0-4.04-.61-4.04-1.37v11.53h0c0,.76,1.81,1.38,4.04,1.38s4.04-.62,4.04-1.38v-11.54c0,.76-1.81,1.38-4.04,1.38Z"/><path class="cls-2" d="M159.26,196.12v11.53h0c0,.52,.86,.98,2.13,1.21v-11.54c-1.27-.23-2.13-.69-2.13-1.21Z"/><path class="cls-2" d="M167.35,196.12v11.53s0,0,0,0c0,.52-.86,.98-2.13,1.21v-11.54c1.27-.23,2.13-.69,2.13-1.21Z"/></g><path class="cls-2" d="M158.03,186.73c0-.99,2.36-1.79,5.28-1.79,2.91,0,5.27,.8,5.28,1.79,0,.99-2.36,1.79-5.28,1.79s-5.27-.8-5.28-1.79Z"/><g><path class="cls-1" d="M163.3,107.25c-2.07,0-3.74-.57-3.75-1.27v81.75h0c0,.7,1.68,1.27,3.75,1.27s3.75-.57,3.75-1.27V105.97c0,.7-1.68,1.27-3.75,1.27Z"/><path class="cls-2" d="M159.56,105.97v81.75h0c0,.49,.8,.91,1.97,1.12V107.09c-1.17-.22-1.97-.64-1.97-1.12Z"/><path class="cls-3" d="M167.05,105.97v81.75s0,0,0,0c0,.49-.8,.91-1.97,1.12V107.09c1.17-.22,1.97-.64,1.97-1.12Z"/></g><g><path class="cls-1" d="M163.3,104.66c-2.91,0-5.27-.8-5.28-1.79v19.61h0c0,.99,2.36,1.79,5.28,1.79s5.28-.8,5.28-1.79v-19.62c0,.99-2.36,1.79-5.28,1.79Z"/><path class="cls-2" d="M158.03,102.87v19.61h0c0,.68,1.12,1.28,2.78,1.58v-19.62c-1.65-.3-2.77-.9-2.78-1.58Z"/><path class="cls-3" d="M168.58,102.87v19.61s0,0,0,0c0,.68-1.12,1.28-2.78,1.58v-19.62c1.65-.3,2.77-.9,2.78-1.58Z"/></g><g><path class="cls-1" d="M163.3,188.53c-2.91,0-5.27-.8-5.28-1.79v15.05h0c0,.99,2.36,1.79,5.28,1.79s5.28-.8,5.28-1.79v-15.05c0,.99-2.36,1.79-5.28,1.79Z"/><path class="cls-2" d="M158.03,186.73v15.05h0c0,.68,1.12,1.28,2.78,1.58v-15.05c-1.65-.3-2.77-.9-2.78-1.58Z"/><path class="cls-3" d="M168.58,186.73v15.05s0,0,0,0c0,.68-1.12,1.28-2.78,1.58v-15.05c1.65-.3,2.77-.9,2.78-1.58Z"/></g></g><polygon class="cls-2" points="175.96 116.42 139.66 113.47 137.53 106.23 124.31 101.69 106.37 60.67 158.03 64.5 175.96 116.42"/><polygon class="cls-2" points="175.96 116.42 175.96 116.42 176.91 62.71 158.03 64.5 175.96 116.42"/><g><path class="cls-1" d="M130.37,106.07c4.77,3.79,7.59,8.18,6.31,9.81l19.61-24.66h0c1.29-1.62-1.53-6.02-6.3-9.81-4.77-3.8-9.69-5.56-10.98-3.93l-19.62,24.66c1.29-1.62,6.21,.14,10.98,3.93Z"/><path class="cls-2" d="M136.68,115.88l19.61-24.66h0c.89-1.12-.18-3.56-2.49-6.21l-19.62,24.66c2.31,2.65,3.38,5.08,2.49,6.2Z"/><path class="cls-3" d="M119.39,102.13l19.61-24.66h0c.89-1.12,3.51-.63,6.61,1.03l-19.62,24.66c-3.1-1.66-5.71-2.15-6.6-1.03Z"/></g><g><path class="cls-2" d="M100.13,162.31c-10.43,3.86-19.95,4.11-21.28,.57l17.08,46.18h0c1.31,3.55,10.84,3.3,21.28-.56,10.44-3.86,17.84-9.87,16.52-13.42l-17.08-46.19c1.31,3.55-6.08,9.56-16.52,13.42Z"/><path class="cls-2" d="M107.62,182.58c-10.43,3.86-19.95,4.11-21.28,.57l9.58,25.91h0c1.31,3.55,10.84,3.3,21.28-.56,10.44-3.86,17.84-9.87,16.52-13.42l-9.59-25.92c1.31,3.55-6.08,9.56-16.52,13.42Z"/><path class="cls-1" d="M86.99,165.33l17.08,46.19c2.23-.14,4.78-.56,7.51-1.25l-17.08-46.19c-2.73,.7-5.28,1.12-7.51,1.25Z"/></g><path class="cls-2" d="M94.5,164.07c-2.73,.7-5.28,1.12-7.51,1.25l7.5,20.27c2.23-.14,4.78-.56,7.51-1.25l-7.5-20.27Z"/><path class="cls-1" d="M116.6,178.31l-7.5-20.27c-2.55,1.54-5.6,3.02-8.98,4.27-.88,.32-1.74,.62-2.6,.89l7.5,20.27c.86-.27,1.73-.57,2.6-.89,3.38-1.25,6.43-2.72,8.98-4.27Z"/><path class="cls-10" d="M117.21,208.5c3.38-1.25,6.43-2.72,8.98-4.27l-9.59-25.92c-2.55,1.54-5.6,3.02-8.98,4.27-.88,.32-1.74,.62-2.6,.89l9.59,25.92c.86-.27,1.73-.57,2.6-.89Z"/><path class="cls-9" d="M100.13,162.31c-.88,.32-1.74,.62-2.6,.89l17.08,46.19c.86-.27,1.73-.57,2.6-.89,3.38-1.25,6.43-2.72,8.98-4.27l-17.08-46.19c-2.55,1.54-5.6,3.02-8.98,4.27Z"/><polygon class="cls-8" points="108.78 187.58 53.07 166.45 95.43 124.28 145.46 141.46 108.78 187.58"/><g><ellipse class="cls-2" cx="99.47" cy="160.64" rx="14.43" ry="4.91" transform="translate(-45.04 38.92) rotate(-18.13)"/><path class="cls-1" d="M87.51,124.11c-5.86,1.92-11.14,1.86-11.8-.13l12.93,39.49h0c.65,2,5.94,2.06,11.81,.14,5.87-1.92,10.09-5.1,9.44-7.09l-12.93-39.49c.65,2-3.57,5.17-9.44,7.09Z"/><path class="cls-2" d="M75.71,123.97l12.93,39.49h0c.45,1.38,3.1,1.83,6.63,1.35l-12.93-39.49c-3.52,.48-6.18,.02-6.63-1.35Z"/><path class="cls-3" d="M96.95,117.02l12.93,39.49h0c.45,1.38-1.42,3.31-4.55,5.01l-12.93-39.49c3.12-1.7,4.99-3.63,4.55-5.01Z"/></g><polygon class="cls-1" points="108.78 195.92 53.07 174.79 53.07 166.45 108.78 187.58 108.78 195.92"/><polygon class="cls-6" points="145.46 141.46 122.44 133.54 137.53 114.57 145.46 141.46"/><polygon class="cls-5" points="99.05 154.6 43.34 133.47 87.5 89.05 137.53 106.23 99.05 154.6"/><polygon class="cls-1" points="99.05 162.94 43.34 141.81 43.34 133.47 99.05 154.6 99.05 162.94"/><polygon class="cls-1" points="147.26 147.55 148.95 145.42 147.26 139.21 137.53 106.23 99.05 154.6 99.05 162.94 137.53 114.57 145.46 141.46 108.78 187.58 108.78 195.92 147.26 147.55 147.26 147.55 147.26 147.55"/><g><path class="cls-1" d="M192.37,173.28c-1.07-.74-1.73-1.64-1.48-2.01l-5.01,7.21h0c-.25,.36,.41,1.26,1.48,2.01,1.07,.74,2.15,1.05,2.4,.69l5.01-7.21c-.25,.36-1.33,.06-2.4-.69Z"/><path class="cls-1" d="M183.46,167.09c-1.07-.74-1.73-1.64-1.48-2.01l-5.01,7.21h0c-.25,.36,.41,1.26,1.48,2.01,1.07,.74,2.15,1.05,2.4,.69l5.01-7.21c-.25,.36-1.33,.06-2.4-.69Z"/></g><g><path class="cls-1" d="M213.67,132.85c-9.13-6.35-14.79-14.01-12.64-17.13l-28.1,40.43h0c-2.16,3.11,3.5,10.78,12.64,17.13,9.14,6.35,18.3,8.98,20.46,5.87l28.11-40.43c-2.16,3.11-11.32,.48-20.46-5.87Z"/><path class="cls-2" d="M201.33,150.6c-9.13-6.35-14.79-14.01-12.64-17.13l-15.77,22.68h0c-2.16,3.11,3.5,10.78,12.64,17.13,9.14,6.35,18.3,8.98,20.46,5.87l15.77-22.69c-2.16,3.11-11.32,.48-20.46-5.87Z"/><path class="cls-1" d="M203.67,123.81l-28.11,40.43c1.39,1.75,3.19,3.6,5.33,5.44l28.11-40.43c-2.13-1.84-3.94-3.69-5.33-5.44Z"/></g><polygon class="cls-4" points="245.89 148.1 188.46 108.18 202.74 93.68 254.49 129.66 245.89 148.1"/><ellipse class="cls-1" cx="223.12" cy="120.06" rx="4.91" ry="14.43" transform="translate(-2.81 234.73) rotate(-55.2)"/><path class="cls-1" d="M245.06,88.49c-5.06-3.52-8.2-7.77-7.01-9.5l-23.72,34.12h0c-1.2,1.72,1.94,5.98,7.01,9.5,5.07,3.52,10.15,4.98,11.35,3.26l23.72-34.12c-1.2,1.72-6.28,.27-11.35-3.26Z"/><path class="cls-2" d="M238.05,78.99l-23.72,34.12h0c-.83,1.19,.41,3.58,2.92,6.11l23.72-34.12c-2.51-2.52-3.74-4.91-2.92-6.1Z"/><path class="cls-3" d="M256.41,91.75l-23.72,34.12h0c-.83,1.19-3.5,.86-6.74-.61l23.72-34.12c3.24,1.47,5.91,1.8,6.74,.61Z"/><path class="cls-2" d="M209,129.25c-2.13-1.84-3.94-3.69-5.33-5.44l-12.33,17.74c1.39,1.75,3.19,3.6,5.33,5.44l12.33-17.74Z"/><path class="cls-10" d="M209.97,155.52l12.33-17.74c-2.72-1.21-5.68-2.87-8.64-4.93-.77-.53-1.51-1.07-2.22-1.62l-12.33,17.74c.71,.55,1.45,1.09,2.22,1.62,2.96,2.06,5.91,3.72,8.64,4.93Z"/><path class="cls-10" d="M185.56,173.29c2.96,2.06,5.91,3.72,8.64,4.93l15.77-22.69c-2.72-1.21-5.68-2.87-8.64-4.93-.77-.53-1.51-1.07-2.22-1.62l-15.77,22.69c.71,.55,1.45,1.09,2.22,1.62Z"/><path class="cls-9" d="M213.67,132.85c-.77-.53-1.51-1.07-2.22-1.62l-28.11,40.43c.71,.55,1.45,1.09,2.22,1.62,2.96,2.06,5.91,3.72,8.64,4.93l28.11-40.43c-2.72-1.21-5.68-2.87-8.64-4.93Z"/><rect class="cls-1" x="180.07" y="127.47" width="69.94" height="7.46" transform="translate(113.36 -99.27) rotate(34.8)"/><path class="cls-1" d="M227,105.2l4.75-6.83c-2.51-2.52-3.74-4.91-2.92-6.1l-4.75,6.83c-.82,1.19,.41,3.58,2.92,6.1Z"/><path class="cls-1" d="M242.44,111.85l4.75-6.83c-.83,1.19-3.5,.86-6.74-.61l-4.75,6.83c3.24,1.47,5.91,1.8,6.74,.61Z"/><path class="cls-7" d="M238.05,78.99c1.2-1.72,6.28-.27,11.35,3.26,5.06,3.52,8.2,7.77,7.01,9.5-1.2,1.72-6.28,.27-11.35-3.26-5.06-3.52-8.2-7.77-7.01-9.5Z"/><polygon class="cls-2" points="188.46 108.18 184.2 114.3 175.96 116.42 176.91 62.71 202.74 93.68 188.46 108.18"/></svg>